G04 #@! TF.GenerationSoftware,KiCad,Pcbnew,6.0.11-2627ca5db0~126~ubuntu20.04.1*
G04 #@! TF.CreationDate,2023-02-19T14:42:03+01:00*
G04 #@! TF.ProjectId,MQTTbug,4d515454-6275-4672-9e6b-696361645f70,rev?*
G04 #@! TF.SameCoordinates,Original*
G04 #@! TF.FileFunction,Soldermask,Bot*
G04 #@! TF.FilePolarity,Negative*
%FSLAX46Y46*%
G04 Gerber Fmt 4.6, Leading zero omitted, Abs format (unit mm)*
G04 Created by KiCad (PCBNEW 6.0.11-2627ca5db0~126~ubuntu20.04.1) date 2023-02-19 14:42:03*
%MOMM*%
%LPD*%
G01*
G04 APERTURE LIST*
%ADD10R,1.700000X1.700000*%
%ADD11O,1.700000X1.700000*%
%ADD12R,2.200000X2.200000*%
%ADD13O,2.200000X2.200000*%
%ADD14R,2.300000X1.500000*%
%ADD15O,2.300000X1.500000*%
%ADD16C,2.000000*%
%ADD17R,2.600000X2.600000*%
%ADD18C,2.600000*%
%ADD19R,1.600000X1.600000*%
%ADD20C,1.600000*%
%ADD21C,4.300000*%
%ADD22O,1.600000X1.600000*%
%ADD23R,1.560000X1.560000*%
%ADD24C,1.560000*%
G04 APERTURE END LIST*
D10*
X58420000Y-87630000D03*
D11*
X58420000Y-90170000D03*
X58420000Y-92710000D03*
X58420000Y-95250000D03*
D12*
X129207500Y-83727000D03*
D13*
X129207500Y-93887000D03*
D14*
X124127500Y-91347000D03*
D15*
X124127500Y-88807000D03*
X124127500Y-86267000D03*
D16*
X66605000Y-113030000D03*
X66605000Y-119530000D03*
X71105000Y-113030000D03*
X71105000Y-119530000D03*
D10*
X58420000Y-109220000D03*
D11*
X58420000Y-111760000D03*
X58420000Y-114300000D03*
X58420000Y-116840000D03*
X58420000Y-119380000D03*
X58420000Y-121920000D03*
D10*
X133350000Y-67310000D03*
D11*
X133350000Y-69850000D03*
X133350000Y-72390000D03*
X133350000Y-74930000D03*
X133350000Y-77470000D03*
X133350000Y-80010000D03*
D10*
X116840000Y-115570000D03*
D11*
X119380000Y-115570000D03*
X121920000Y-115570000D03*
X124460000Y-115570000D03*
X127000000Y-115570000D03*
X129540000Y-115570000D03*
D17*
X76195000Y-129540000D03*
D18*
X81275000Y-129540000D03*
D19*
X124087500Y-74837000D03*
X124758437Y-76437000D03*
D20*
X121587500Y-74837000D03*
X120916563Y-73237000D03*
D21*
X58420000Y-129540000D03*
X58420000Y-58420000D03*
D10*
X58420000Y-67310000D03*
D11*
X58420000Y-69850000D03*
X58420000Y-72390000D03*
X58420000Y-74930000D03*
D21*
X129540000Y-129540000D03*
D10*
X90170000Y-73660000D03*
D11*
X92710000Y-73660000D03*
X95250000Y-73660000D03*
X97790000Y-73660000D03*
D10*
X90170000Y-121920000D03*
D11*
X92710000Y-121920000D03*
X95250000Y-121920000D03*
X97790000Y-121920000D03*
D10*
X66040000Y-106680000D03*
D11*
X68580000Y-106680000D03*
X71120000Y-106680000D03*
D19*
X124798437Y-103107000D03*
X124127500Y-101507000D03*
D20*
X121627500Y-101507000D03*
X120956563Y-99907000D03*
D21*
X129540000Y-58420000D03*
D17*
X106680000Y-129540000D03*
D18*
X111760000Y-129540000D03*
D10*
X71755000Y-87630000D03*
D11*
X71755000Y-90170000D03*
X71755000Y-92710000D03*
X71755000Y-95250000D03*
D10*
X133350000Y-91440000D03*
D11*
X133350000Y-88900000D03*
X133350000Y-86360000D03*
D19*
X102870000Y-58420000D03*
D22*
X102870000Y-60960000D03*
X102870000Y-63500000D03*
X102870000Y-66040000D03*
X102870000Y-68580000D03*
X102870000Y-71120000D03*
X102870000Y-73660000D03*
X102870000Y-76200000D03*
X102870000Y-78740000D03*
X102870000Y-81280000D03*
X102870000Y-83820000D03*
X102870000Y-86360000D03*
X102870000Y-88900000D03*
X102870000Y-91440000D03*
X102870000Y-93980000D03*
X102870000Y-96520000D03*
X102870000Y-99060000D03*
X102870000Y-101600000D03*
X102870000Y-104140000D03*
X102870000Y-106680000D03*
X85090000Y-106680000D03*
X85090000Y-104140000D03*
X85090000Y-101600000D03*
X85090000Y-99060000D03*
X85090000Y-96520000D03*
X85090000Y-93980000D03*
X85090000Y-91440000D03*
X85090000Y-88900000D03*
X85090000Y-86360000D03*
X85090000Y-83820000D03*
X85090000Y-81280000D03*
X85090000Y-78740000D03*
X85090000Y-76200000D03*
X85090000Y-73660000D03*
X85090000Y-71120000D03*
X85090000Y-68580000D03*
X85090000Y-66040000D03*
X85090000Y-63500000D03*
X85090000Y-60960000D03*
X85090000Y-58420000D03*
D23*
X106680000Y-58420000D03*
D24*
X106680000Y-60960000D03*
X106680000Y-63500000D03*
X106680000Y-66040000D03*
X106680000Y-68580000D03*
X106680000Y-71120000D03*
X106680000Y-73660000D03*
X106680000Y-76200000D03*
X106680000Y-78740000D03*
X106680000Y-81280000D03*
X106680000Y-83820000D03*
X106680000Y-86360000D03*
X106680000Y-88900000D03*
X106680000Y-91440000D03*
X106680000Y-93980000D03*
X106680000Y-96520000D03*
X106680000Y-99060000D03*
X106680000Y-101600000D03*
X106680000Y-104140000D03*
X81280000Y-58420000D03*
X81280000Y-60960000D03*
X81280000Y-63500000D03*
X81280000Y-66040000D03*
X81280000Y-68580000D03*
X81280000Y-71120000D03*
X81280000Y-73660000D03*
X81280000Y-76200000D03*
X81280000Y-78740000D03*
X81280000Y-81280000D03*
X81280000Y-83820000D03*
X81280000Y-86360000D03*
X81280000Y-88900000D03*
X81280000Y-91440000D03*
X81280000Y-93980000D03*
X81280000Y-96520000D03*
X81280000Y-99060000D03*
X81280000Y-101600000D03*
X81280000Y-104140000D03*
M02*
