M48
; DRILL file {KiCad 6.0.11-2627ca5db0~126~ubuntu20.04.1} date So 19 Feb 2023 14:44:51 CET
; FORMAT={-:-/ absolute / metric / decimal}
; #@! TF.CreationDate,2023-02-19T14:44:51+01:00
; #@! TF.GenerationSoftware,Kicad,Pcbnew,6.0.11-2627ca5db0~126~ubuntu20.04.1
; #@! TF.FileFunction,Plated,1,2,PTH
FMAT,2
METRIC
; #@! TA.AperFunction,Plated,PTH,ViaDrill
T1C0.400
; #@! TA.AperFunction,Plated,PTH,ViaDrill
T2C0.600
; #@! TA.AperFunction,Plated,PTH,ComponentDrill
T3C0.800
; #@! TA.AperFunction,Plated,PTH,ComponentDrill
T4C1.000
; #@! TA.AperFunction,Plated,PTH,ComponentDrill
T5C1.040
; #@! TA.AperFunction,Plated,PTH,ComponentDrill
T6C1.100
; #@! TA.AperFunction,Plated,PTH,ComponentDrill
T7C1.300
%
G90
G05
T1
X88.265Y-99.06
X89.535Y-106.68
X99.06Y-63.5
X111.125Y-104.14
X122.555Y-80.01
X122.555Y-81.28
X128.27Y-69.85
X128.27Y-71.12
T2
X88.9Y-78.74
X88.9Y-114.935
X90.17Y-88.9
X90.17Y-101.6
T3
X85.09Y-58.42
X85.09Y-60.96
X85.09Y-63.5
X85.09Y-66.04
X85.09Y-68.58
X85.09Y-71.12
X85.09Y-73.66
X85.09Y-76.2
X85.09Y-78.74
X85.09Y-81.28
X85.09Y-83.82
X85.09Y-86.36
X85.09Y-88.9
X85.09Y-91.44
X85.09Y-93.98
X85.09Y-96.52
X85.09Y-99.06
X85.09Y-101.6
X85.09Y-104.14
X85.09Y-106.68
X102.87Y-58.42
X102.87Y-60.96
X102.87Y-63.5
X102.87Y-66.04
X102.87Y-68.58
X102.87Y-71.12
X102.87Y-73.66
X102.87Y-76.2
X102.87Y-78.74
X102.87Y-81.28
X102.87Y-83.82
X102.87Y-86.36
X102.87Y-88.9
X102.87Y-91.44
X102.87Y-93.98
X102.87Y-96.52
X102.87Y-99.06
X102.87Y-101.6
X102.87Y-104.14
X102.87Y-106.68
X120.917Y-73.237
X120.957Y-99.907
X121.587Y-74.837
X121.627Y-101.507
X124.087Y-74.837
X124.127Y-101.507
X124.758Y-76.437
X124.798Y-103.107
T4
X58.42Y-67.31
X58.42Y-69.85
X58.42Y-72.39
X58.42Y-74.93
X58.42Y-87.63
X58.42Y-90.17
X58.42Y-92.71
X58.42Y-95.25
X58.42Y-109.22
X58.42Y-111.76
X58.42Y-114.3
X58.42Y-116.84
X58.42Y-119.38
X58.42Y-121.92
X66.04Y-106.68
X68.58Y-106.68
X71.12Y-106.68
X71.755Y-87.63
X71.755Y-90.17
X71.755Y-92.71
X71.755Y-95.25
X90.17Y-73.66
X90.17Y-121.92
X92.71Y-73.66
X92.71Y-121.92
X95.25Y-73.66
X95.25Y-121.92
X97.79Y-73.66
X97.79Y-121.92
X116.84Y-115.57
X119.38Y-115.57
X121.92Y-115.57
X124.127Y-86.267
X124.127Y-88.807
X124.127Y-91.347
X124.46Y-115.57
X127.0Y-115.57
X129.54Y-115.57
X133.35Y-67.31
X133.35Y-69.85
X133.35Y-72.39
X133.35Y-74.93
X133.35Y-77.47
X133.35Y-80.01
X133.35Y-86.36
X133.35Y-88.9
X133.35Y-91.44
T5
X81.28Y-58.42
X81.28Y-60.96
X81.28Y-63.5
X81.28Y-66.04
X81.28Y-68.58
X81.28Y-71.12
X81.28Y-73.66
X81.28Y-76.2
X81.28Y-78.74
X81.28Y-81.28
X81.28Y-83.82
X81.28Y-86.36
X81.28Y-88.9
X81.28Y-91.44
X81.28Y-93.98
X81.28Y-96.52
X81.28Y-99.06
X81.28Y-101.6
X81.28Y-104.14
X106.68Y-58.42
X106.68Y-60.96
X106.68Y-63.5
X106.68Y-66.04
X106.68Y-68.58
X106.68Y-71.12
X106.68Y-73.66
X106.68Y-76.2
X106.68Y-78.74
X106.68Y-81.28
X106.68Y-83.82
X106.68Y-86.36
X106.68Y-88.9
X106.68Y-91.44
X106.68Y-93.98
X106.68Y-96.52
X106.68Y-99.06
X106.68Y-101.6
X106.68Y-104.14
T6
X66.605Y-113.03
X66.605Y-119.53
X71.105Y-113.03
X71.105Y-119.53
X129.207Y-83.727
X129.207Y-93.887
T7
X76.195Y-129.54
X81.275Y-129.54
X106.68Y-129.54
X111.76Y-129.54
T0
M30
