G04 #@! TF.GenerationSoftware,KiCad,Pcbnew,6.0.11-2627ca5db0~126~ubuntu20.04.1*
G04 #@! TF.CreationDate,2023-02-19T14:42:03+01:00*
G04 #@! TF.ProjectId,MQTTbug,4d515454-6275-4672-9e6b-696361645f70,rev?*
G04 #@! TF.SameCoordinates,Original*
G04 #@! TF.FileFunction,Legend,Top*
G04 #@! TF.FilePolarity,Positive*
%FSLAX46Y46*%
G04 Gerber Fmt 4.6, Leading zero omitted, Abs format (unit mm)*
G04 Created by KiCad (PCBNEW 6.0.11-2627ca5db0~126~ubuntu20.04.1) date 2023-02-19 14:42:03*
%MOMM*%
%LPD*%
G01*
G04 APERTURE LIST*
%ADD10C,0.150000*%
%ADD11C,0.120000*%
%ADD12R,1.700000X1.700000*%
%ADD13O,1.700000X1.700000*%
%ADD14R,2.200000X2.200000*%
%ADD15O,2.200000X2.200000*%
%ADD16R,2.300000X1.500000*%
%ADD17O,2.300000X1.500000*%
%ADD18C,2.000000*%
%ADD19R,2.600000X2.600000*%
%ADD20C,2.600000*%
%ADD21R,1.600000X1.600000*%
%ADD22C,1.600000*%
%ADD23C,4.300000*%
%ADD24O,1.600000X1.600000*%
%ADD25R,1.560000X1.560000*%
%ADD26C,1.560000*%
G04 APERTURE END LIST*
D10*
X93980000Y-53340000D02*
X93980000Y-134620000D01*
X58086666Y-84312380D02*
X58086666Y-85026666D01*
X58039047Y-85169523D01*
X57943809Y-85264761D01*
X57800952Y-85312380D01*
X57705714Y-85312380D01*
X58991428Y-84312380D02*
X58800952Y-84312380D01*
X58705714Y-84360000D01*
X58658095Y-84407619D01*
X58562857Y-84550476D01*
X58515238Y-84740952D01*
X58515238Y-85121904D01*
X58562857Y-85217142D01*
X58610476Y-85264761D01*
X58705714Y-85312380D01*
X58896190Y-85312380D01*
X58991428Y-85264761D01*
X59039047Y-85217142D01*
X59086666Y-85121904D01*
X59086666Y-84883809D01*
X59039047Y-84788571D01*
X58991428Y-84740952D01*
X58896190Y-84693333D01*
X58705714Y-84693333D01*
X58610476Y-84740952D01*
X58562857Y-84788571D01*
X58515238Y-84883809D01*
X132129880Y-89545095D02*
X131129880Y-89545095D01*
X131129880Y-89307000D01*
X131177500Y-89164142D01*
X131272738Y-89068904D01*
X131367976Y-89021285D01*
X131558452Y-88973666D01*
X131701309Y-88973666D01*
X131891785Y-89021285D01*
X131987023Y-89068904D01*
X132082261Y-89164142D01*
X132129880Y-89307000D01*
X132129880Y-89545095D01*
X132129880Y-88021285D02*
X132129880Y-88592714D01*
X132129880Y-88307000D02*
X131129880Y-88307000D01*
X131272738Y-88402238D01*
X131367976Y-88497476D01*
X131415595Y-88592714D01*
X131759880Y-83988904D02*
X130759880Y-83988904D01*
X131759880Y-83417476D02*
X131188452Y-83846047D01*
X130759880Y-83417476D02*
X131331309Y-83988904D01*
X116019880Y-89568904D02*
X116829404Y-89568904D01*
X116924642Y-89521285D01*
X116972261Y-89473666D01*
X117019880Y-89378428D01*
X117019880Y-89187952D01*
X116972261Y-89092714D01*
X116924642Y-89045095D01*
X116829404Y-88997476D01*
X116019880Y-88997476D01*
X117019880Y-87997476D02*
X117019880Y-88568904D01*
X117019880Y-88283190D02*
X116019880Y-88283190D01*
X116162738Y-88378428D01*
X116257976Y-88473666D01*
X116305595Y-88568904D01*
X65009761Y-117613333D02*
X65057380Y-117470476D01*
X65057380Y-117232380D01*
X65009761Y-117137142D01*
X64962142Y-117089523D01*
X64866904Y-117041904D01*
X64771666Y-117041904D01*
X64676428Y-117089523D01*
X64628809Y-117137142D01*
X64581190Y-117232380D01*
X64533571Y-117422857D01*
X64485952Y-117518095D01*
X64438333Y-117565714D01*
X64343095Y-117613333D01*
X64247857Y-117613333D01*
X64152619Y-117565714D01*
X64105000Y-117518095D01*
X64057380Y-117422857D01*
X64057380Y-117184761D01*
X64105000Y-117041904D01*
X64057380Y-116708571D02*
X65057380Y-116470476D01*
X64343095Y-116280000D01*
X65057380Y-116089523D01*
X64057380Y-115851428D01*
X65057380Y-114946666D02*
X65057380Y-115518095D01*
X65057380Y-115232380D02*
X64057380Y-115232380D01*
X64200238Y-115327619D01*
X64295476Y-115422857D01*
X64343095Y-115518095D01*
X58086666Y-106342380D02*
X58086666Y-107056666D01*
X58039047Y-107199523D01*
X57943809Y-107294761D01*
X57800952Y-107342380D01*
X57705714Y-107342380D01*
X58705714Y-106770952D02*
X58610476Y-106723333D01*
X58562857Y-106675714D01*
X58515238Y-106580476D01*
X58515238Y-106532857D01*
X58562857Y-106437619D01*
X58610476Y-106390000D01*
X58705714Y-106342380D01*
X58896190Y-106342380D01*
X58991428Y-106390000D01*
X59039047Y-106437619D01*
X59086666Y-106532857D01*
X59086666Y-106580476D01*
X59039047Y-106675714D01*
X58991428Y-106723333D01*
X58896190Y-106770952D01*
X58705714Y-106770952D01*
X58610476Y-106818571D01*
X58562857Y-106866190D01*
X58515238Y-106961428D01*
X58515238Y-107151904D01*
X58562857Y-107247142D01*
X58610476Y-107294761D01*
X58705714Y-107342380D01*
X58896190Y-107342380D01*
X58991428Y-107294761D01*
X59039047Y-107247142D01*
X59086666Y-107151904D01*
X59086666Y-106961428D01*
X59039047Y-106866190D01*
X58991428Y-106818571D01*
X58896190Y-106770952D01*
X133016666Y-64432380D02*
X133016666Y-65146666D01*
X132969047Y-65289523D01*
X132873809Y-65384761D01*
X132730952Y-65432380D01*
X132635714Y-65432380D01*
X133540476Y-65432380D02*
X133730952Y-65432380D01*
X133826190Y-65384761D01*
X133873809Y-65337142D01*
X133969047Y-65194285D01*
X134016666Y-65003809D01*
X134016666Y-64622857D01*
X133969047Y-64527619D01*
X133921428Y-64480000D01*
X133826190Y-64432380D01*
X133635714Y-64432380D01*
X133540476Y-64480000D01*
X133492857Y-64527619D01*
X133445238Y-64622857D01*
X133445238Y-64860952D01*
X133492857Y-64956190D01*
X133540476Y-65003809D01*
X133635714Y-65051428D01*
X133826190Y-65051428D01*
X133921428Y-65003809D01*
X133969047Y-64956190D01*
X134016666Y-64860952D01*
X113117380Y-115903333D02*
X113831666Y-115903333D01*
X113974523Y-115950952D01*
X114069761Y-116046190D01*
X114117380Y-116189047D01*
X114117380Y-116284285D01*
X113117380Y-115522380D02*
X113117380Y-114903333D01*
X113498333Y-115236666D01*
X113498333Y-115093809D01*
X113545952Y-114998571D01*
X113593571Y-114950952D01*
X113688809Y-114903333D01*
X113926904Y-114903333D01*
X114022142Y-114950952D01*
X114069761Y-114998571D01*
X114117380Y-115093809D01*
X114117380Y-115379523D01*
X114069761Y-115474761D01*
X114022142Y-115522380D01*
X78401666Y-122732380D02*
X78401666Y-123446666D01*
X78354047Y-123589523D01*
X78258809Y-123684761D01*
X78115952Y-123732380D01*
X78020714Y-123732380D01*
X79401666Y-123732380D02*
X78830238Y-123732380D01*
X79115952Y-123732380D02*
X79115952Y-122732380D01*
X79020714Y-122875238D01*
X78925476Y-122970476D01*
X78830238Y-123018095D01*
X122670833Y-81444142D02*
X122623214Y-81491761D01*
X122480357Y-81539380D01*
X122385119Y-81539380D01*
X122242261Y-81491761D01*
X122147023Y-81396523D01*
X122099404Y-81301285D01*
X122051785Y-81110809D01*
X122051785Y-80967952D01*
X122099404Y-80777476D01*
X122147023Y-80682238D01*
X122242261Y-80587000D01*
X122385119Y-80539380D01*
X122480357Y-80539380D01*
X122623214Y-80587000D01*
X122670833Y-80634619D01*
X123051785Y-80634619D02*
X123099404Y-80587000D01*
X123194642Y-80539380D01*
X123432738Y-80539380D01*
X123527976Y-80587000D01*
X123575595Y-80634619D01*
X123623214Y-80729857D01*
X123623214Y-80825095D01*
X123575595Y-80967952D01*
X123004166Y-81539380D01*
X123623214Y-81539380D01*
X57658095Y-124692380D02*
X57658095Y-123692380D01*
X57658095Y-124168571D02*
X58229523Y-124168571D01*
X58229523Y-124692380D02*
X58229523Y-123692380D01*
X59134285Y-124025714D02*
X59134285Y-124692380D01*
X58896190Y-123644761D02*
X58658095Y-124359047D01*
X59277142Y-124359047D01*
X57658095Y-53572380D02*
X57658095Y-52572380D01*
X57658095Y-53048571D02*
X58229523Y-53048571D01*
X58229523Y-53572380D02*
X58229523Y-52572380D01*
X59229523Y-53572380D02*
X58658095Y-53572380D01*
X58943809Y-53572380D02*
X58943809Y-52572380D01*
X58848571Y-52715238D01*
X58753333Y-52810476D01*
X58658095Y-52858095D01*
X57610476Y-63992380D02*
X57610476Y-64706666D01*
X57562857Y-64849523D01*
X57467619Y-64944761D01*
X57324761Y-64992380D01*
X57229523Y-64992380D01*
X58610476Y-64992380D02*
X58039047Y-64992380D01*
X58324761Y-64992380D02*
X58324761Y-63992380D01*
X58229523Y-64135238D01*
X58134285Y-64230476D01*
X58039047Y-64278095D01*
X59562857Y-64992380D02*
X58991428Y-64992380D01*
X59277142Y-64992380D02*
X59277142Y-63992380D01*
X59181904Y-64135238D01*
X59086666Y-64230476D01*
X58991428Y-64278095D01*
X128778095Y-124912380D02*
X128778095Y-123912380D01*
X128778095Y-124388571D02*
X129349523Y-124388571D01*
X129349523Y-124912380D02*
X129349523Y-123912380D01*
X129730476Y-123912380D02*
X130349523Y-123912380D01*
X130016190Y-124293333D01*
X130159047Y-124293333D01*
X130254285Y-124340952D01*
X130301904Y-124388571D01*
X130349523Y-124483809D01*
X130349523Y-124721904D01*
X130301904Y-124817142D01*
X130254285Y-124864761D01*
X130159047Y-124912380D01*
X129873333Y-124912380D01*
X129778095Y-124864761D01*
X129730476Y-124817142D01*
X86852380Y-73993333D02*
X87566666Y-73993333D01*
X87709523Y-74040952D01*
X87804761Y-74136190D01*
X87852380Y-74279047D01*
X87852380Y-74374285D01*
X87185714Y-73088571D02*
X87852380Y-73088571D01*
X86804761Y-73326666D02*
X87519047Y-73564761D01*
X87519047Y-72945714D01*
X86852380Y-122253333D02*
X87566666Y-122253333D01*
X87709523Y-122300952D01*
X87804761Y-122396190D01*
X87852380Y-122539047D01*
X87852380Y-122634285D01*
X86852380Y-121300952D02*
X86852380Y-121777142D01*
X87328571Y-121824761D01*
X87280952Y-121777142D01*
X87233333Y-121681904D01*
X87233333Y-121443809D01*
X87280952Y-121348571D01*
X87328571Y-121300952D01*
X87423809Y-121253333D01*
X87661904Y-121253333D01*
X87757142Y-121300952D01*
X87804761Y-121348571D01*
X87852380Y-121443809D01*
X87852380Y-121681904D01*
X87804761Y-121777142D01*
X87757142Y-121824761D01*
X63162380Y-107489523D02*
X63876666Y-107489523D01*
X64019523Y-107537142D01*
X64114761Y-107632380D01*
X64162380Y-107775238D01*
X64162380Y-107870476D01*
X64162380Y-106489523D02*
X64162380Y-107060952D01*
X64162380Y-106775238D02*
X63162380Y-106775238D01*
X63305238Y-106870476D01*
X63400476Y-106965714D01*
X63448095Y-107060952D01*
X63257619Y-106108571D02*
X63210000Y-106060952D01*
X63162380Y-105965714D01*
X63162380Y-105727619D01*
X63210000Y-105632380D01*
X63257619Y-105584761D01*
X63352857Y-105537142D01*
X63448095Y-105537142D01*
X63590952Y-105584761D01*
X64162380Y-106156190D01*
X64162380Y-105537142D01*
X122710833Y-108114142D02*
X122663214Y-108161761D01*
X122520357Y-108209380D01*
X122425119Y-108209380D01*
X122282261Y-108161761D01*
X122187023Y-108066523D01*
X122139404Y-107971285D01*
X122091785Y-107780809D01*
X122091785Y-107637952D01*
X122139404Y-107447476D01*
X122187023Y-107352238D01*
X122282261Y-107257000D01*
X122425119Y-107209380D01*
X122520357Y-107209380D01*
X122663214Y-107257000D01*
X122710833Y-107304619D01*
X123663214Y-108209380D02*
X123091785Y-108209380D01*
X123377500Y-108209380D02*
X123377500Y-107209380D01*
X123282261Y-107352238D01*
X123187023Y-107447476D01*
X123091785Y-107495095D01*
X128778095Y-53572380D02*
X128778095Y-52572380D01*
X128778095Y-53048571D02*
X129349523Y-53048571D01*
X129349523Y-53572380D02*
X129349523Y-52572380D01*
X129778095Y-52667619D02*
X129825714Y-52620000D01*
X129920952Y-52572380D01*
X130159047Y-52572380D01*
X130254285Y-52620000D01*
X130301904Y-52667619D01*
X130349523Y-52762857D01*
X130349523Y-52858095D01*
X130301904Y-53000952D01*
X129730476Y-53572380D01*
X130349523Y-53572380D01*
X108886666Y-122732380D02*
X108886666Y-123446666D01*
X108839047Y-123589523D01*
X108743809Y-123684761D01*
X108600952Y-123732380D01*
X108505714Y-123732380D01*
X109315238Y-122827619D02*
X109362857Y-122780000D01*
X109458095Y-122732380D01*
X109696190Y-122732380D01*
X109791428Y-122780000D01*
X109839047Y-122827619D01*
X109886666Y-122922857D01*
X109886666Y-123018095D01*
X109839047Y-123160952D01*
X109267619Y-123732380D01*
X109886666Y-123732380D01*
X71421666Y-84312380D02*
X71421666Y-85026666D01*
X71374047Y-85169523D01*
X71278809Y-85264761D01*
X71135952Y-85312380D01*
X71040714Y-85312380D01*
X71802619Y-84312380D02*
X72469285Y-84312380D01*
X72040714Y-85312380D01*
X132540476Y-93222380D02*
X132540476Y-93936666D01*
X132492857Y-94079523D01*
X132397619Y-94174761D01*
X132254761Y-94222380D01*
X132159523Y-94222380D01*
X133540476Y-94222380D02*
X132969047Y-94222380D01*
X133254761Y-94222380D02*
X133254761Y-93222380D01*
X133159523Y-93365238D01*
X133064285Y-93460476D01*
X132969047Y-93508095D01*
X134159523Y-93222380D02*
X134254761Y-93222380D01*
X134350000Y-93270000D01*
X134397619Y-93317619D01*
X134445238Y-93412857D01*
X134492857Y-93603333D01*
X134492857Y-93841428D01*
X134445238Y-94031904D01*
X134397619Y-94127142D01*
X134350000Y-94174761D01*
X134254761Y-94222380D01*
X134159523Y-94222380D01*
X134064285Y-94174761D01*
X134016666Y-94127142D01*
X133969047Y-94031904D01*
X133921428Y-93841428D01*
X133921428Y-93603333D01*
X133969047Y-93412857D01*
X134016666Y-93317619D01*
X134064285Y-93270000D01*
X134159523Y-93222380D01*
D11*
X57090000Y-88900000D02*
X59750000Y-88900000D01*
X57090000Y-96580000D02*
X59750000Y-96580000D01*
X59750000Y-88900000D02*
X59750000Y-96580000D01*
X59750000Y-86300000D02*
X59750000Y-87630000D01*
X57090000Y-88900000D02*
X57090000Y-96580000D01*
X58420000Y-86300000D02*
X59750000Y-86300000D01*
X130677500Y-86867000D02*
X127737500Y-86867000D01*
X130677500Y-87107000D02*
X127737500Y-87107000D01*
X130677500Y-86087000D02*
X127737500Y-86087000D01*
X130677500Y-86987000D02*
X127737500Y-86987000D01*
X129207500Y-85067000D02*
X129207500Y-86087000D01*
X130677500Y-91527000D02*
X130677500Y-86087000D01*
X129207500Y-92547000D02*
X129207500Y-91527000D01*
X127737500Y-86087000D02*
X127737500Y-91527000D01*
X127737500Y-91527000D02*
X130677500Y-91527000D01*
X117567500Y-94718000D02*
X126187500Y-94718000D01*
X125187500Y-94958000D02*
X126427500Y-94958000D01*
X126427500Y-94958000D02*
X126427500Y-93718000D01*
X117567500Y-94718000D02*
X117567500Y-82997000D01*
X117567500Y-82997000D02*
X126187500Y-82997000D01*
X126187500Y-94718000D02*
X126187500Y-82997000D01*
X68105000Y-119780000D02*
X69605000Y-119780000D01*
X65605000Y-114030000D02*
X65605000Y-118530000D01*
X72105000Y-118530000D02*
X72105000Y-114030000D01*
X69605000Y-112780000D02*
X68105000Y-112780000D01*
X57090000Y-107890000D02*
X58420000Y-107890000D01*
X57090000Y-110490000D02*
X59750000Y-110490000D01*
X57090000Y-109220000D02*
X57090000Y-107890000D01*
X57090000Y-123250000D02*
X59750000Y-123250000D01*
X59750000Y-110490000D02*
X59750000Y-123250000D01*
X57090000Y-110490000D02*
X57090000Y-123250000D01*
X132020000Y-68580000D02*
X132020000Y-81340000D01*
X132020000Y-81340000D02*
X134680000Y-81340000D01*
X134680000Y-68580000D02*
X134680000Y-81340000D01*
X132020000Y-68580000D02*
X134680000Y-68580000D01*
X132020000Y-65980000D02*
X133350000Y-65980000D01*
X132020000Y-67310000D02*
X132020000Y-65980000D01*
X118110000Y-114240000D02*
X130870000Y-114240000D01*
X115510000Y-115570000D02*
X115510000Y-114240000D01*
X118110000Y-116900000D02*
X130870000Y-116900000D01*
X130870000Y-116900000D02*
X130870000Y-114240000D01*
X118110000Y-116900000D02*
X118110000Y-114240000D01*
X115510000Y-114240000D02*
X116840000Y-114240000D01*
X73595000Y-134200000D02*
X83875000Y-134200000D01*
X73595000Y-132140000D02*
X83875000Y-132140000D01*
X73595000Y-124279000D02*
X73595000Y-134200000D01*
X73595000Y-127239000D02*
X83875000Y-127239000D01*
X83875000Y-124279000D02*
X83875000Y-134200000D01*
X73355000Y-133700000D02*
X73355000Y-134440000D01*
X73595000Y-133640000D02*
X83875000Y-133640000D01*
X80241000Y-130779000D02*
X80206000Y-130814000D01*
X82550000Y-128471000D02*
X82503000Y-128517000D01*
X80048000Y-130563000D02*
X80001000Y-130609000D01*
X73355000Y-134440000D02*
X73855000Y-134440000D01*
X73595000Y-124279000D02*
X83875000Y-124279000D01*
X82345000Y-128265000D02*
X82310000Y-128301000D01*
X76195000Y-131220000D02*
G75*
G03*
X76878318Y-131074756I0J1680000D01*
G01*
X75511000Y-131075000D02*
G75*
G03*
X76223805Y-131220253I683999J1535001D01*
G01*
X74660000Y-128856000D02*
G75*
G03*
X74659573Y-130223042I1534993J-684001D01*
G01*
X76879000Y-128005000D02*
G75*
G03*
X75511958Y-128004573I-684001J-1534993D01*
G01*
X77730001Y-130224000D02*
G75*
G03*
X77730427Y-128856958I-1535001J684000D01*
G01*
X82955000Y-129540000D02*
G75*
G03*
X82955000Y-129540000I-1680000J0D01*
G01*
X119796500Y-78917000D02*
X119796500Y-70757000D01*
X119196500Y-78398000D02*
X119196500Y-71276000D01*
X119476500Y-78661000D02*
X119476500Y-71013000D01*
X120916500Y-79544000D02*
X120916500Y-75877000D01*
X121756500Y-79802000D02*
X121756500Y-75877000D01*
X121716500Y-79793000D02*
X121716500Y-75877000D01*
X120436500Y-72197000D02*
X120436500Y-70354000D01*
X122036500Y-73797000D02*
X122036500Y-69819000D01*
X120316500Y-72197000D02*
X120316500Y-70420000D01*
X119396500Y-78590000D02*
X119396500Y-71084000D01*
X119316500Y-78516000D02*
X119316500Y-71158000D01*
X120956500Y-72197000D02*
X120956500Y-70114000D01*
X120596500Y-79401000D02*
X120596500Y-75877000D01*
X121596500Y-79765000D02*
X121596500Y-75877000D01*
X120116500Y-72197000D02*
X120116500Y-70539000D01*
X119916500Y-79003000D02*
X119916500Y-74277000D01*
X120316500Y-79254000D02*
X120316500Y-74277000D01*
X121076500Y-79605000D02*
X121076500Y-75877000D01*
X120236500Y-72197000D02*
X120236500Y-70466000D01*
X119276500Y-78477000D02*
X119276500Y-71197000D01*
X121276500Y-79674000D02*
X121276500Y-75877000D01*
X121796500Y-79811000D02*
X121796500Y-75877000D01*
X121956500Y-79841000D02*
X121956500Y-75877000D01*
X117916500Y-76215000D02*
X117916500Y-73459000D01*
X122317500Y-73797000D02*
X122317500Y-69783000D01*
X118756500Y-77891000D02*
X118756500Y-71783000D01*
X121876500Y-72197000D02*
X121876500Y-69847000D01*
X120196500Y-79184000D02*
X120196500Y-74277000D01*
X120876500Y-79527000D02*
X120876500Y-75877000D01*
X121756500Y-72197000D02*
X121756500Y-69872000D01*
X119876500Y-78975000D02*
X119876500Y-74277000D01*
X121236500Y-79661000D02*
X121236500Y-75877000D01*
X128317146Y-77712000D02*
X127317146Y-77712000D01*
X118356500Y-77276000D02*
X118356500Y-72398000D01*
X121316500Y-72197000D02*
X121316500Y-69987000D01*
X120636500Y-72197000D02*
X120636500Y-70253000D01*
X122637500Y-79914000D02*
X122637500Y-69760000D01*
X117956500Y-76347000D02*
X117956500Y-73327000D01*
X122076500Y-73797000D02*
X122076500Y-69813000D01*
X117876500Y-76067000D02*
X117876500Y-73607000D01*
X119876500Y-72197000D02*
X119876500Y-70699000D01*
X119036500Y-78229000D02*
X119036500Y-71445000D01*
X120556500Y-79382000D02*
X120556500Y-75877000D01*
X121996500Y-73797000D02*
X121996500Y-69826000D01*
X121556500Y-72197000D02*
X121556500Y-69919000D01*
X119236500Y-78438000D02*
X119236500Y-71236000D01*
X119356500Y-78553000D02*
X119356500Y-71121000D01*
X119676500Y-78826000D02*
X119676500Y-70848000D01*
X122677500Y-79915000D02*
X122677500Y-69759000D01*
X121156500Y-79634000D02*
X121156500Y-75877000D01*
X119916500Y-72197000D02*
X119916500Y-70671000D01*
X120196500Y-72197000D02*
X120196500Y-70490000D01*
X122357500Y-79895000D02*
X122357500Y-75877000D01*
X121036500Y-79591000D02*
X121036500Y-75877000D01*
X121156500Y-72197000D02*
X121156500Y-70040000D01*
X120396500Y-72197000D02*
X120396500Y-70375000D01*
X119116500Y-78315000D02*
X119116500Y-71359000D01*
X120836500Y-79511000D02*
X120836500Y-75877000D01*
X118276500Y-77126000D02*
X118276500Y-72548000D01*
X122116500Y-79867000D02*
X122116500Y-75877000D01*
X119956500Y-72197000D02*
X119956500Y-70643000D01*
X120996500Y-72197000D02*
X120996500Y-70099000D01*
X120796500Y-79494000D02*
X120796500Y-75877000D01*
X122597500Y-73797000D02*
X122597500Y-69762000D01*
X118316500Y-77202000D02*
X118316500Y-72472000D01*
X122557500Y-73797000D02*
X122557500Y-69764000D01*
X121116500Y-72197000D02*
X121116500Y-70054000D01*
X119076500Y-78273000D02*
X119076500Y-71401000D01*
X118916500Y-78091000D02*
X118916500Y-71583000D01*
X118116500Y-76781000D02*
X118116500Y-72893000D01*
X122237500Y-79882000D02*
X122237500Y-75877000D01*
X119556500Y-78729000D02*
X119556500Y-70945000D01*
X118476500Y-77482000D02*
X118476500Y-72192000D01*
X121076500Y-72197000D02*
X121076500Y-70069000D01*
X122157500Y-73797000D02*
X122157500Y-69802000D01*
X120036500Y-79084000D02*
X120036500Y-74277000D01*
X120276500Y-79232000D02*
X120276500Y-74277000D01*
X120756500Y-72197000D02*
X120756500Y-70198000D01*
X122757500Y-79917000D02*
X122757500Y-69757000D01*
X121956500Y-73797000D02*
X121956500Y-69833000D01*
X119516500Y-78695000D02*
X119516500Y-70979000D01*
X121836500Y-72197000D02*
X121836500Y-69855000D01*
X119596500Y-78762000D02*
X119596500Y-70912000D01*
X120836500Y-72197000D02*
X120836500Y-70163000D01*
X120956500Y-79560000D02*
X120956500Y-75877000D01*
X117796500Y-75699000D02*
X117796500Y-73975000D01*
X122197500Y-79877000D02*
X122197500Y-75877000D01*
X119636500Y-78794000D02*
X119636500Y-70880000D01*
X122437500Y-73797000D02*
X122437500Y-69772000D01*
X121476500Y-79734000D02*
X121476500Y-75877000D01*
X120996500Y-79575000D02*
X120996500Y-75877000D01*
X122717500Y-79916000D02*
X122717500Y-69758000D01*
X121476500Y-72197000D02*
X121476500Y-69940000D01*
X118156500Y-76874000D02*
X118156500Y-72800000D01*
X121356500Y-79699000D02*
X121356500Y-75877000D01*
X118036500Y-76579000D02*
X118036500Y-73095000D01*
X122477500Y-73797000D02*
X122477500Y-69769000D01*
X120076500Y-72197000D02*
X120076500Y-70564000D01*
X118956500Y-78138000D02*
X118956500Y-71536000D01*
X118716500Y-77837000D02*
X118716500Y-71837000D01*
X120716500Y-79458000D02*
X120716500Y-75877000D01*
X120036500Y-72197000D02*
X120036500Y-70590000D01*
X118996500Y-78184000D02*
X118996500Y-71490000D01*
X120556500Y-72197000D02*
X120556500Y-70292000D01*
X120636500Y-79421000D02*
X120636500Y-75877000D01*
X118076500Y-76683000D02*
X118076500Y-72991000D01*
X121996500Y-79848000D02*
X121996500Y-75877000D01*
X120156500Y-79160000D02*
X120156500Y-74277000D01*
X121516500Y-72197000D02*
X121516500Y-69930000D01*
X122116500Y-73797000D02*
X122116500Y-69807000D01*
X121636500Y-79775000D02*
X121636500Y-75877000D01*
X122237500Y-73797000D02*
X122237500Y-69792000D01*
X122517500Y-79907000D02*
X122517500Y-75877000D01*
X120276500Y-72197000D02*
X120276500Y-70442000D01*
X118556500Y-77607000D02*
X118556500Y-72067000D01*
X121596500Y-72197000D02*
X121596500Y-69909000D01*
X118396500Y-77347000D02*
X118396500Y-72327000D01*
X122357500Y-73797000D02*
X122357500Y-69779000D01*
X120596500Y-72197000D02*
X120596500Y-70273000D01*
X121556500Y-79755000D02*
X121556500Y-75877000D01*
X121436500Y-79722000D02*
X121436500Y-75877000D01*
X120756500Y-79476000D02*
X120756500Y-75877000D01*
X121196500Y-79648000D02*
X121196500Y-75877000D01*
X121916500Y-72197000D02*
X121916500Y-69840000D01*
X122157500Y-79872000D02*
X122157500Y-75877000D01*
X117996500Y-76467000D02*
X117996500Y-73207000D01*
X122197500Y-73797000D02*
X122197500Y-69797000D01*
X120676500Y-72197000D02*
X120676500Y-70234000D01*
X120516500Y-72197000D02*
X120516500Y-70312000D01*
X120796500Y-72197000D02*
X120796500Y-70180000D01*
X119836500Y-78947000D02*
X119836500Y-70727000D01*
X120116500Y-79135000D02*
X120116500Y-74277000D01*
X121236500Y-72197000D02*
X121236500Y-70013000D01*
X118196500Y-76962000D02*
X118196500Y-72712000D01*
X122277500Y-73797000D02*
X122277500Y-69787000D01*
X122036500Y-79855000D02*
X122036500Y-75877000D01*
X121516500Y-79744000D02*
X121516500Y-75877000D01*
X120356500Y-79277000D02*
X120356500Y-74277000D01*
X121396500Y-79711000D02*
X121396500Y-75877000D01*
X118236500Y-77046000D02*
X118236500Y-72628000D01*
X120356500Y-72197000D02*
X120356500Y-70397000D01*
X122557500Y-79910000D02*
X122557500Y-75877000D01*
X121876500Y-79827000D02*
X121876500Y-75877000D01*
X121396500Y-72197000D02*
X121396500Y-69963000D01*
X120676500Y-79440000D02*
X120676500Y-75877000D01*
X122517500Y-73797000D02*
X122517500Y-69767000D01*
X122397500Y-73797000D02*
X122397500Y-69775000D01*
X122397500Y-79899000D02*
X122397500Y-75877000D01*
X121276500Y-72197000D02*
X121276500Y-70000000D01*
X121356500Y-72197000D02*
X121356500Y-69975000D01*
X121836500Y-79819000D02*
X121836500Y-75877000D01*
X118876500Y-78043000D02*
X118876500Y-71631000D01*
X119996500Y-72197000D02*
X119996500Y-70616000D01*
X121796500Y-72197000D02*
X121796500Y-69863000D01*
X121676500Y-72197000D02*
X121676500Y-69890000D01*
X121676500Y-79784000D02*
X121676500Y-75877000D01*
X120876500Y-72197000D02*
X120876500Y-70147000D01*
X118596500Y-77667000D02*
X118596500Y-72007000D01*
X121116500Y-79620000D02*
X121116500Y-75877000D01*
X120716500Y-72197000D02*
X120716500Y-70216000D01*
X117756500Y-75436000D02*
X117756500Y-74238000D01*
X122277500Y-79887000D02*
X122277500Y-75877000D01*
X120916500Y-72197000D02*
X120916500Y-70130000D01*
X120516500Y-79362000D02*
X120516500Y-74277000D01*
X120436500Y-79320000D02*
X120436500Y-74277000D01*
X120156500Y-72197000D02*
X120156500Y-70514000D01*
X119156500Y-78357000D02*
X119156500Y-71317000D01*
X118796500Y-77943000D02*
X118796500Y-71731000D01*
X120236500Y-79208000D02*
X120236500Y-74277000D01*
X118516500Y-77546000D02*
X118516500Y-72128000D01*
X119436500Y-78626000D02*
X119436500Y-71048000D01*
X120476500Y-72197000D02*
X120476500Y-70333000D01*
X121916500Y-79834000D02*
X121916500Y-75877000D01*
X127817146Y-78212000D02*
X127817146Y-77212000D01*
X122437500Y-79902000D02*
X122437500Y-75877000D01*
X121196500Y-72197000D02*
X121196500Y-70026000D01*
X122837500Y-79917000D02*
X122837500Y-69757000D01*
X121716500Y-72197000D02*
X121716500Y-69881000D01*
X122076500Y-79861000D02*
X122076500Y-75877000D01*
X122797500Y-79917000D02*
X122797500Y-69757000D01*
X120076500Y-79110000D02*
X120076500Y-74277000D01*
X122317500Y-79891000D02*
X122317500Y-75877000D01*
X121316500Y-79687000D02*
X121316500Y-75877000D01*
X120476500Y-79341000D02*
X120476500Y-74277000D01*
X119996500Y-79058000D02*
X119996500Y-74277000D01*
X120396500Y-79299000D02*
X120396500Y-74277000D01*
X121436500Y-72197000D02*
X121436500Y-69952000D01*
X118676500Y-77782000D02*
X118676500Y-71892000D01*
X121636500Y-72197000D02*
X121636500Y-69899000D01*
X118636500Y-77726000D02*
X118636500Y-71948000D01*
X118836500Y-77993000D02*
X118836500Y-71681000D01*
X119756500Y-78887000D02*
X119756500Y-70787000D01*
X118436500Y-77416000D02*
X118436500Y-72258000D01*
X122597500Y-79912000D02*
X122597500Y-75877000D01*
X119956500Y-79031000D02*
X119956500Y-74277000D01*
X117836500Y-75899000D02*
X117836500Y-73775000D01*
X119716500Y-78857000D02*
X119716500Y-70817000D01*
X121036500Y-72197000D02*
X121036500Y-70083000D01*
X122477500Y-79905000D02*
X122477500Y-75877000D01*
X127957500Y-74837000D02*
G75*
G03*
X127957500Y-74837000I-5120000J0D01*
G01*
X58420000Y-65980000D02*
X59750000Y-65980000D01*
X57090000Y-76260000D02*
X59750000Y-76260000D01*
X57090000Y-68580000D02*
X57090000Y-76260000D01*
X59750000Y-65980000D02*
X59750000Y-67310000D01*
X59750000Y-68580000D02*
X59750000Y-76260000D01*
X57090000Y-68580000D02*
X59750000Y-68580000D01*
X91440000Y-74990000D02*
X91440000Y-72330000D01*
X91440000Y-72330000D02*
X99120000Y-72330000D01*
X88840000Y-73660000D02*
X88840000Y-72330000D01*
X99120000Y-74990000D02*
X99120000Y-72330000D01*
X91440000Y-74990000D02*
X99120000Y-74990000D01*
X88840000Y-72330000D02*
X90170000Y-72330000D01*
X91440000Y-123250000D02*
X91440000Y-120590000D01*
X88840000Y-120590000D02*
X90170000Y-120590000D01*
X88840000Y-121920000D02*
X88840000Y-120590000D01*
X91440000Y-123250000D02*
X99120000Y-123250000D01*
X91440000Y-120590000D02*
X99120000Y-120590000D01*
X99120000Y-123250000D02*
X99120000Y-120590000D01*
X66040000Y-108010000D02*
X64710000Y-108010000D01*
X72450000Y-108010000D02*
X72450000Y-105350000D01*
X67310000Y-108010000D02*
X67310000Y-105350000D01*
X64710000Y-108010000D02*
X64710000Y-106680000D01*
X67310000Y-108010000D02*
X72450000Y-108010000D01*
X67310000Y-105350000D02*
X72450000Y-105350000D01*
X118556500Y-104216000D02*
X118556500Y-98798000D01*
X120076500Y-105754000D02*
X120076500Y-100947000D01*
X121076500Y-98867000D02*
X121076500Y-96753000D01*
X122076500Y-100467000D02*
X122076500Y-96489000D01*
X118916500Y-104713000D02*
X118916500Y-98301000D01*
X122116500Y-106531000D02*
X122116500Y-102547000D01*
X122357500Y-100467000D02*
X122357500Y-96453000D01*
X119276500Y-105108000D02*
X119276500Y-97906000D01*
X120396500Y-98867000D02*
X120396500Y-97067000D01*
X122837500Y-106587000D02*
X122837500Y-96427000D01*
X120916500Y-98867000D02*
X120916500Y-96817000D01*
X120716500Y-106110000D02*
X120716500Y-102547000D01*
X122797500Y-106587000D02*
X122797500Y-96427000D01*
X122597500Y-106580000D02*
X122597500Y-102547000D01*
X121316500Y-106344000D02*
X121316500Y-102547000D01*
X121556500Y-98867000D02*
X121556500Y-96600000D01*
X118436500Y-104017000D02*
X118436500Y-98997000D01*
X120516500Y-106011000D02*
X120516500Y-100947000D01*
X122076500Y-106525000D02*
X122076500Y-102547000D01*
X121196500Y-98867000D02*
X121196500Y-96710000D01*
X119716500Y-105496000D02*
X119716500Y-97518000D01*
X120756500Y-98867000D02*
X120756500Y-96886000D01*
X120116500Y-98867000D02*
X120116500Y-97234000D01*
X118356500Y-103872000D02*
X118356500Y-99142000D01*
X121036500Y-98867000D02*
X121036500Y-96769000D01*
X119516500Y-105331000D02*
X119516500Y-97683000D01*
X122637500Y-100467000D02*
X122637500Y-96432000D01*
X118956500Y-104761000D02*
X118956500Y-98253000D01*
X120756500Y-106128000D02*
X120756500Y-102547000D01*
X122197500Y-100467000D02*
X122197500Y-96472000D01*
X117916500Y-102737000D02*
X117916500Y-100277000D01*
X122397500Y-100467000D02*
X122397500Y-96449000D01*
X118116500Y-103353000D02*
X118116500Y-99661000D01*
X120196500Y-105830000D02*
X120196500Y-100947000D01*
X122156500Y-106537000D02*
X122156500Y-102547000D01*
X121476500Y-98867000D02*
X121476500Y-96622000D01*
X122637500Y-106582000D02*
X122637500Y-102547000D01*
X120996500Y-106230000D02*
X120996500Y-102547000D01*
X121876500Y-106489000D02*
X121876500Y-102547000D01*
X121636500Y-106435000D02*
X121636500Y-102547000D01*
X121836500Y-106481000D02*
X121836500Y-102547000D01*
X120436500Y-105969000D02*
X120436500Y-100947000D01*
X120916500Y-106197000D02*
X120916500Y-102547000D01*
X120516500Y-98867000D02*
X120516500Y-97003000D01*
X120876500Y-98867000D02*
X120876500Y-96833000D01*
X120156500Y-98867000D02*
X120156500Y-97209000D01*
X121396500Y-106369000D02*
X121396500Y-102547000D01*
X122116500Y-100467000D02*
X122116500Y-96483000D01*
X117996500Y-103017000D02*
X117996500Y-99997000D01*
X120956500Y-98867000D02*
X120956500Y-96800000D01*
X121676500Y-98867000D02*
X121676500Y-96569000D01*
X120996500Y-98867000D02*
X120996500Y-96784000D01*
X120156500Y-105805000D02*
X120156500Y-100947000D01*
X121476500Y-106392000D02*
X121476500Y-102547000D01*
X122357500Y-106561000D02*
X122357500Y-102547000D01*
X119116500Y-104943000D02*
X119116500Y-98071000D01*
X117796500Y-102106000D02*
X117796500Y-100908000D01*
X122877500Y-106587000D02*
X122877500Y-96427000D01*
X121956500Y-106504000D02*
X121956500Y-102547000D01*
X119676500Y-105464000D02*
X119676500Y-97550000D01*
X122317500Y-100467000D02*
X122317500Y-96457000D01*
X121676500Y-106445000D02*
X121676500Y-102547000D01*
X120316500Y-98867000D02*
X120316500Y-97112000D01*
X122677500Y-106584000D02*
X122677500Y-96430000D01*
X121716500Y-98867000D02*
X121716500Y-96560000D01*
X120236500Y-105854000D02*
X120236500Y-100947000D01*
X121236500Y-106318000D02*
X121236500Y-102547000D01*
X121916500Y-106497000D02*
X121916500Y-102547000D01*
X118676500Y-104396000D02*
X118676500Y-98618000D01*
X127857146Y-104882000D02*
X127857146Y-103882000D01*
X122517500Y-100467000D02*
X122517500Y-96439000D01*
X120436500Y-98867000D02*
X120436500Y-97045000D01*
X121916500Y-98867000D02*
X121916500Y-96517000D01*
X121716500Y-106454000D02*
X121716500Y-102547000D01*
X118156500Y-103451000D02*
X118156500Y-99563000D01*
X118516500Y-104152000D02*
X118516500Y-98862000D01*
X119916500Y-105645000D02*
X119916500Y-100947000D01*
X121836500Y-98867000D02*
X121836500Y-96533000D01*
X120036500Y-98867000D02*
X120036500Y-97286000D01*
X120676500Y-98867000D02*
X120676500Y-96923000D01*
X121956500Y-98867000D02*
X121956500Y-96510000D01*
X119356500Y-105186000D02*
X119356500Y-97828000D01*
X121116500Y-98867000D02*
X121116500Y-96739000D01*
X122036500Y-100467000D02*
X122036500Y-96496000D01*
X122597500Y-100467000D02*
X122597500Y-96434000D01*
X119636500Y-105432000D02*
X119636500Y-97582000D01*
X122517500Y-106575000D02*
X122517500Y-102547000D01*
X122717500Y-106585000D02*
X122717500Y-96429000D01*
X118596500Y-104277000D02*
X118596500Y-98737000D01*
X120476500Y-98867000D02*
X120476500Y-97024000D01*
X122437500Y-100467000D02*
X122437500Y-96445000D01*
X121516500Y-106404000D02*
X121516500Y-102547000D01*
X120836500Y-106164000D02*
X120836500Y-102547000D01*
X121516500Y-98867000D02*
X121516500Y-96610000D01*
X119156500Y-104985000D02*
X119156500Y-98029000D01*
X121436500Y-98867000D02*
X121436500Y-96633000D01*
X122397500Y-106565000D02*
X122397500Y-102547000D01*
X121356500Y-106357000D02*
X121356500Y-102547000D01*
X117836500Y-102369000D02*
X117836500Y-100645000D01*
X119076500Y-104899000D02*
X119076500Y-98115000D01*
X119836500Y-105587000D02*
X119836500Y-97427000D01*
X118876500Y-104663000D02*
X118876500Y-98351000D01*
X119036500Y-104854000D02*
X119036500Y-98160000D01*
X119476500Y-105296000D02*
X119476500Y-97718000D01*
X121436500Y-106381000D02*
X121436500Y-102547000D01*
X117876500Y-102569000D02*
X117876500Y-100445000D01*
X121196500Y-106304000D02*
X121196500Y-102547000D01*
X119956500Y-105673000D02*
X119956500Y-100947000D01*
X122197500Y-106542000D02*
X122197500Y-102547000D01*
X120076500Y-98867000D02*
X120076500Y-97260000D01*
X120476500Y-105990000D02*
X120476500Y-100947000D01*
X120676500Y-106091000D02*
X120676500Y-102547000D01*
X121596500Y-106425000D02*
X121596500Y-102547000D01*
X121756500Y-98867000D02*
X121756500Y-96551000D01*
X117956500Y-102885000D02*
X117956500Y-100129000D01*
X121396500Y-98867000D02*
X121396500Y-96645000D01*
X120716500Y-98867000D02*
X120716500Y-96904000D01*
X119996500Y-98867000D02*
X119996500Y-97313000D01*
X120396500Y-105947000D02*
X120396500Y-100947000D01*
X122557500Y-106577000D02*
X122557500Y-102547000D01*
X120796500Y-98867000D02*
X120796500Y-96868000D01*
X121316500Y-98867000D02*
X121316500Y-96670000D01*
X119436500Y-105260000D02*
X119436500Y-97754000D01*
X118996500Y-104808000D02*
X118996500Y-98206000D01*
X119316500Y-105147000D02*
X119316500Y-97867000D01*
X122437500Y-106569000D02*
X122437500Y-102547000D01*
X120596500Y-106052000D02*
X120596500Y-102547000D01*
X118036500Y-103137000D02*
X118036500Y-99877000D01*
X121756500Y-106463000D02*
X121756500Y-102547000D01*
X119756500Y-105527000D02*
X119756500Y-97487000D01*
X119796500Y-105557000D02*
X119796500Y-97457000D01*
X119956500Y-98867000D02*
X119956500Y-97341000D01*
X121036500Y-106245000D02*
X121036500Y-102547000D01*
X128357146Y-104382000D02*
X127357146Y-104382000D01*
X121356500Y-98867000D02*
X121356500Y-96657000D01*
X120356500Y-105924000D02*
X120356500Y-100947000D01*
X118276500Y-103716000D02*
X118276500Y-99298000D01*
X120636500Y-106071000D02*
X120636500Y-102547000D01*
X120596500Y-98867000D02*
X120596500Y-96962000D01*
X119876500Y-105617000D02*
X119876500Y-97397000D01*
X120356500Y-98867000D02*
X120356500Y-97090000D01*
X120196500Y-98867000D02*
X120196500Y-97184000D01*
X120556500Y-98867000D02*
X120556500Y-96982000D01*
X120876500Y-106181000D02*
X120876500Y-102547000D01*
X120836500Y-98867000D02*
X120836500Y-96850000D01*
X120276500Y-105878000D02*
X120276500Y-100947000D01*
X120116500Y-105780000D02*
X120116500Y-100947000D01*
X119396500Y-105223000D02*
X119396500Y-97791000D01*
X121116500Y-106275000D02*
X121116500Y-102547000D01*
X121876500Y-98867000D02*
X121876500Y-96525000D01*
X118316500Y-103796000D02*
X118316500Y-99218000D01*
X118476500Y-104086000D02*
X118476500Y-98928000D01*
X121796500Y-98867000D02*
X121796500Y-96542000D01*
X119996500Y-105701000D02*
X119996500Y-100947000D01*
X119196500Y-105027000D02*
X119196500Y-97987000D01*
X122237500Y-106547000D02*
X122237500Y-102547000D01*
X119596500Y-105399000D02*
X119596500Y-97615000D01*
X120316500Y-105902000D02*
X120316500Y-100947000D01*
X122237500Y-100467000D02*
X122237500Y-96467000D01*
X118756500Y-104507000D02*
X118756500Y-98507000D01*
X122036500Y-106518000D02*
X122036500Y-102547000D01*
X121276500Y-106331000D02*
X121276500Y-102547000D01*
X118796500Y-104561000D02*
X118796500Y-98453000D01*
X122277500Y-100467000D02*
X122277500Y-96462000D01*
X121076500Y-106261000D02*
X121076500Y-102547000D01*
X118236500Y-103632000D02*
X118236500Y-99382000D01*
X120956500Y-106214000D02*
X120956500Y-102547000D01*
X121156500Y-98867000D02*
X121156500Y-96724000D01*
X121276500Y-98867000D02*
X121276500Y-96683000D01*
X121596500Y-98867000D02*
X121596500Y-96589000D01*
X121556500Y-106414000D02*
X121556500Y-102547000D01*
X118636500Y-104337000D02*
X118636500Y-98677000D01*
X121156500Y-106290000D02*
X121156500Y-102547000D01*
X120036500Y-105728000D02*
X120036500Y-100947000D01*
X120236500Y-98867000D02*
X120236500Y-97160000D01*
X121636500Y-98867000D02*
X121636500Y-96579000D01*
X118716500Y-104452000D02*
X118716500Y-98562000D01*
X121996500Y-106511000D02*
X121996500Y-102547000D01*
X122156500Y-100467000D02*
X122156500Y-96477000D01*
X119916500Y-98867000D02*
X119916500Y-97369000D01*
X122477500Y-100467000D02*
X122477500Y-96442000D01*
X119236500Y-105068000D02*
X119236500Y-97946000D01*
X120276500Y-98867000D02*
X120276500Y-97136000D01*
X120636500Y-98867000D02*
X120636500Y-96943000D01*
X118076500Y-103249000D02*
X118076500Y-99765000D01*
X119556500Y-105365000D02*
X119556500Y-97649000D01*
X122317500Y-106557000D02*
X122317500Y-102547000D01*
X122557500Y-100467000D02*
X122557500Y-96437000D01*
X121236500Y-98867000D02*
X121236500Y-96696000D01*
X121796500Y-106472000D02*
X121796500Y-102547000D01*
X120556500Y-106032000D02*
X120556500Y-100947000D01*
X121996500Y-100467000D02*
X121996500Y-96503000D01*
X118196500Y-103544000D02*
X118196500Y-99470000D01*
X118396500Y-103946000D02*
X118396500Y-99068000D01*
X122477500Y-106572000D02*
X122477500Y-102547000D01*
X122277500Y-106552000D02*
X122277500Y-102547000D01*
X118836500Y-104613000D02*
X118836500Y-98401000D01*
X120796500Y-106146000D02*
X120796500Y-102547000D01*
X122757500Y-106586000D02*
X122757500Y-96428000D01*
X127997500Y-101507000D02*
G75*
G03*
X127997500Y-101507000I-5120000J0D01*
G01*
X104080000Y-124279000D02*
X104080000Y-134200000D01*
X104080000Y-133640000D02*
X114360000Y-133640000D01*
X113035000Y-128471000D02*
X112988000Y-128517000D01*
X114360000Y-124279000D02*
X114360000Y-134200000D01*
X103840000Y-133700000D02*
X103840000Y-134440000D01*
X110726000Y-130779000D02*
X110691000Y-130814000D01*
X104080000Y-127239000D02*
X114360000Y-127239000D01*
X110533000Y-130563000D02*
X110486000Y-130609000D01*
X104080000Y-124279000D02*
X114360000Y-124279000D01*
X103840000Y-134440000D02*
X104340000Y-134440000D01*
X104080000Y-134200000D02*
X114360000Y-134200000D01*
X104080000Y-132140000D02*
X114360000Y-132140000D01*
X112830000Y-128265000D02*
X112795000Y-128301000D01*
X107364000Y-128005000D02*
G75*
G03*
X105996958Y-128004573I-684001J-1534993D01*
G01*
X108215001Y-130224000D02*
G75*
G03*
X108215427Y-128856958I-1535001J684000D01*
G01*
X105145000Y-128856000D02*
G75*
G03*
X105144573Y-130223042I1534993J-684001D01*
G01*
X106680000Y-131220000D02*
G75*
G03*
X107363318Y-131074756I0J1680000D01*
G01*
X105996000Y-131075000D02*
G75*
G03*
X106708805Y-131220253I683999J1535001D01*
G01*
X113440000Y-129540000D02*
G75*
G03*
X113440000Y-129540000I-1680000J0D01*
G01*
X73085000Y-88900000D02*
X73085000Y-96580000D01*
X71755000Y-86300000D02*
X73085000Y-86300000D01*
X70425000Y-88900000D02*
X70425000Y-96580000D01*
X73085000Y-86300000D02*
X73085000Y-87630000D01*
X70425000Y-96580000D02*
X73085000Y-96580000D01*
X70425000Y-88900000D02*
X73085000Y-88900000D01*
X134680000Y-90170000D02*
X134680000Y-85030000D01*
X134680000Y-91440000D02*
X134680000Y-92770000D01*
X134680000Y-90170000D02*
X132020000Y-90170000D01*
X134680000Y-85030000D02*
X132020000Y-85030000D01*
X132020000Y-90170000D02*
X132020000Y-85030000D01*
X134680000Y-92770000D02*
X133350000Y-92770000D01*
%LPC*%
D12*
X58420000Y-87630000D03*
D13*
X58420000Y-90170000D03*
X58420000Y-92710000D03*
X58420000Y-95250000D03*
D14*
X129207500Y-83727000D03*
D15*
X129207500Y-93887000D03*
D16*
X124127500Y-91347000D03*
D17*
X124127500Y-88807000D03*
X124127500Y-86267000D03*
D18*
X66605000Y-113030000D03*
X66605000Y-119530000D03*
X71105000Y-113030000D03*
X71105000Y-119530000D03*
D12*
X58420000Y-109220000D03*
D13*
X58420000Y-111760000D03*
X58420000Y-114300000D03*
X58420000Y-116840000D03*
X58420000Y-119380000D03*
X58420000Y-121920000D03*
D12*
X133350000Y-67310000D03*
D13*
X133350000Y-69850000D03*
X133350000Y-72390000D03*
X133350000Y-74930000D03*
X133350000Y-77470000D03*
X133350000Y-80010000D03*
D12*
X116840000Y-115570000D03*
D13*
X119380000Y-115570000D03*
X121920000Y-115570000D03*
X124460000Y-115570000D03*
X127000000Y-115570000D03*
X129540000Y-115570000D03*
D19*
X76195000Y-129540000D03*
D20*
X81275000Y-129540000D03*
D21*
X124087500Y-74837000D03*
X124758437Y-76437000D03*
D22*
X121587500Y-74837000D03*
X120916563Y-73237000D03*
D23*
X58420000Y-129540000D03*
X58420000Y-58420000D03*
D12*
X58420000Y-67310000D03*
D13*
X58420000Y-69850000D03*
X58420000Y-72390000D03*
X58420000Y-74930000D03*
D23*
X129540000Y-129540000D03*
D12*
X90170000Y-73660000D03*
D13*
X92710000Y-73660000D03*
X95250000Y-73660000D03*
X97790000Y-73660000D03*
D12*
X90170000Y-121920000D03*
D13*
X92710000Y-121920000D03*
X95250000Y-121920000D03*
X97790000Y-121920000D03*
D12*
X66040000Y-106680000D03*
D13*
X68580000Y-106680000D03*
X71120000Y-106680000D03*
D21*
X124798437Y-103107000D03*
X124127500Y-101507000D03*
D22*
X121627500Y-101507000D03*
X120956563Y-99907000D03*
D23*
X129540000Y-58420000D03*
D19*
X106680000Y-129540000D03*
D20*
X111760000Y-129540000D03*
D12*
X71755000Y-87630000D03*
D13*
X71755000Y-90170000D03*
X71755000Y-92710000D03*
X71755000Y-95250000D03*
D12*
X133350000Y-91440000D03*
D13*
X133350000Y-88900000D03*
X133350000Y-86360000D03*
D21*
X102870000Y-58420000D03*
D24*
X102870000Y-60960000D03*
X102870000Y-63500000D03*
X102870000Y-66040000D03*
X102870000Y-68580000D03*
X102870000Y-71120000D03*
X102870000Y-73660000D03*
X102870000Y-76200000D03*
X102870000Y-78740000D03*
X102870000Y-81280000D03*
X102870000Y-83820000D03*
X102870000Y-86360000D03*
X102870000Y-88900000D03*
X102870000Y-91440000D03*
X102870000Y-93980000D03*
X102870000Y-96520000D03*
X102870000Y-99060000D03*
X102870000Y-101600000D03*
X102870000Y-104140000D03*
X102870000Y-106680000D03*
X85090000Y-106680000D03*
X85090000Y-104140000D03*
X85090000Y-101600000D03*
X85090000Y-99060000D03*
X85090000Y-96520000D03*
X85090000Y-93980000D03*
X85090000Y-91440000D03*
X85090000Y-88900000D03*
X85090000Y-86360000D03*
X85090000Y-83820000D03*
X85090000Y-81280000D03*
X85090000Y-78740000D03*
X85090000Y-76200000D03*
X85090000Y-73660000D03*
X85090000Y-71120000D03*
X85090000Y-68580000D03*
X85090000Y-66040000D03*
X85090000Y-63500000D03*
X85090000Y-60960000D03*
X85090000Y-58420000D03*
D25*
X106680000Y-58420000D03*
D26*
X106680000Y-60960000D03*
X106680000Y-63500000D03*
X106680000Y-66040000D03*
X106680000Y-68580000D03*
X106680000Y-71120000D03*
X106680000Y-73660000D03*
X106680000Y-76200000D03*
X106680000Y-78740000D03*
X106680000Y-81280000D03*
X106680000Y-83820000D03*
X106680000Y-86360000D03*
X106680000Y-88900000D03*
X106680000Y-91440000D03*
X106680000Y-93980000D03*
X106680000Y-96520000D03*
X106680000Y-99060000D03*
X106680000Y-101600000D03*
X106680000Y-104140000D03*
X81280000Y-58420000D03*
X81280000Y-60960000D03*
X81280000Y-63500000D03*
X81280000Y-66040000D03*
X81280000Y-68580000D03*
X81280000Y-71120000D03*
X81280000Y-73660000D03*
X81280000Y-76200000D03*
X81280000Y-78740000D03*
X81280000Y-81280000D03*
X81280000Y-83820000D03*
X81280000Y-86360000D03*
X81280000Y-88900000D03*
X81280000Y-91440000D03*
X81280000Y-93980000D03*
X81280000Y-96520000D03*
X81280000Y-99060000D03*
X81280000Y-101600000D03*
X81280000Y-104140000D03*
M02*
