G04 #@! TF.GenerationSoftware,KiCad,Pcbnew,6.0.11-2627ca5db0~126~ubuntu20.04.1*
G04 #@! TF.CreationDate,2023-02-19T14:42:03+01:00*
G04 #@! TF.ProjectId,MQTTbug,4d515454-6275-4672-9e6b-696361645f70,rev?*
G04 #@! TF.SameCoordinates,Original*
G04 #@! TF.FileFunction,Copper,L1,Top*
G04 #@! TF.FilePolarity,Positive*
%FSLAX46Y46*%
G04 Gerber Fmt 4.6, Leading zero omitted, Abs format (unit mm)*
G04 Created by KiCad (PCBNEW 6.0.11-2627ca5db0~126~ubuntu20.04.1) date 2023-02-19 14:42:03*
%MOMM*%
%LPD*%
G01*
G04 APERTURE LIST*
G04 #@! TA.AperFunction,ComponentPad*
%ADD10R,1.700000X1.700000*%
G04 #@! TD*
G04 #@! TA.AperFunction,ComponentPad*
%ADD11O,1.700000X1.700000*%
G04 #@! TD*
G04 #@! TA.AperFunction,ComponentPad*
%ADD12R,2.200000X2.200000*%
G04 #@! TD*
G04 #@! TA.AperFunction,ComponentPad*
%ADD13O,2.200000X2.200000*%
G04 #@! TD*
G04 #@! TA.AperFunction,ComponentPad*
%ADD14R,2.300000X1.500000*%
G04 #@! TD*
G04 #@! TA.AperFunction,ComponentPad*
%ADD15O,2.300000X1.500000*%
G04 #@! TD*
G04 #@! TA.AperFunction,ComponentPad*
%ADD16C,2.000000*%
G04 #@! TD*
G04 #@! TA.AperFunction,ComponentPad*
%ADD17R,2.600000X2.600000*%
G04 #@! TD*
G04 #@! TA.AperFunction,ComponentPad*
%ADD18C,2.600000*%
G04 #@! TD*
G04 #@! TA.AperFunction,ComponentPad*
%ADD19R,1.600000X1.600000*%
G04 #@! TD*
G04 #@! TA.AperFunction,ComponentPad*
%ADD20C,1.600000*%
G04 #@! TD*
G04 #@! TA.AperFunction,ComponentPad*
%ADD21O,1.600000X1.600000*%
G04 #@! TD*
G04 #@! TA.AperFunction,ComponentPad*
%ADD22R,1.560000X1.560000*%
G04 #@! TD*
G04 #@! TA.AperFunction,ComponentPad*
%ADD23C,1.560000*%
G04 #@! TD*
G04 #@! TA.AperFunction,ViaPad*
%ADD24C,1.100000*%
G04 #@! TD*
G04 #@! TA.AperFunction,ViaPad*
%ADD25C,0.800000*%
G04 #@! TD*
G04 #@! TA.AperFunction,Conductor*
%ADD26C,0.500000*%
G04 #@! TD*
G04 #@! TA.AperFunction,Conductor*
%ADD27C,0.200000*%
G04 #@! TD*
G04 APERTURE END LIST*
D10*
X58420000Y-87630000D03*
D11*
X58420000Y-90170000D03*
X58420000Y-92710000D03*
X58420000Y-95250000D03*
D12*
X129207500Y-83727000D03*
D13*
X129207500Y-93887000D03*
D14*
X124127500Y-91347000D03*
D15*
X124127500Y-88807000D03*
X124127500Y-86267000D03*
D16*
X66605000Y-113030000D03*
X66605000Y-119530000D03*
X71105000Y-113030000D03*
X71105000Y-119530000D03*
D10*
X58420000Y-109220000D03*
D11*
X58420000Y-111760000D03*
X58420000Y-114300000D03*
X58420000Y-116840000D03*
X58420000Y-119380000D03*
X58420000Y-121920000D03*
D10*
X133350000Y-67310000D03*
D11*
X133350000Y-69850000D03*
X133350000Y-72390000D03*
X133350000Y-74930000D03*
X133350000Y-77470000D03*
X133350000Y-80010000D03*
D10*
X116840000Y-115570000D03*
D11*
X119380000Y-115570000D03*
X121920000Y-115570000D03*
X124460000Y-115570000D03*
X127000000Y-115570000D03*
X129540000Y-115570000D03*
D17*
X76195000Y-129540000D03*
D18*
X81275000Y-129540000D03*
D19*
X124087500Y-74837000D03*
X124758437Y-76437000D03*
D20*
X121587500Y-74837000D03*
X120916563Y-73237000D03*
D10*
X58420000Y-67310000D03*
D11*
X58420000Y-69850000D03*
X58420000Y-72390000D03*
X58420000Y-74930000D03*
D10*
X90170000Y-73660000D03*
D11*
X92710000Y-73660000D03*
X95250000Y-73660000D03*
X97790000Y-73660000D03*
D10*
X90170000Y-121920000D03*
D11*
X92710000Y-121920000D03*
X95250000Y-121920000D03*
X97790000Y-121920000D03*
D10*
X66040000Y-106680000D03*
D11*
X68580000Y-106680000D03*
X71120000Y-106680000D03*
D19*
X124798437Y-103107000D03*
X124127500Y-101507000D03*
D20*
X121627500Y-101507000D03*
X120956563Y-99907000D03*
D17*
X106680000Y-129540000D03*
D18*
X111760000Y-129540000D03*
D10*
X71755000Y-87630000D03*
D11*
X71755000Y-90170000D03*
X71755000Y-92710000D03*
X71755000Y-95250000D03*
D10*
X133350000Y-91440000D03*
D11*
X133350000Y-88900000D03*
X133350000Y-86360000D03*
D19*
X102870000Y-58420000D03*
D21*
X102870000Y-60960000D03*
X102870000Y-63500000D03*
X102870000Y-66040000D03*
X102870000Y-68580000D03*
X102870000Y-71120000D03*
X102870000Y-73660000D03*
X102870000Y-76200000D03*
X102870000Y-78740000D03*
X102870000Y-81280000D03*
X102870000Y-83820000D03*
X102870000Y-86360000D03*
X102870000Y-88900000D03*
X102870000Y-91440000D03*
X102870000Y-93980000D03*
X102870000Y-96520000D03*
X102870000Y-99060000D03*
X102870000Y-101600000D03*
X102870000Y-104140000D03*
X102870000Y-106680000D03*
X85090000Y-106680000D03*
X85090000Y-104140000D03*
X85090000Y-101600000D03*
X85090000Y-99060000D03*
X85090000Y-96520000D03*
X85090000Y-93980000D03*
X85090000Y-91440000D03*
X85090000Y-88900000D03*
X85090000Y-86360000D03*
X85090000Y-83820000D03*
X85090000Y-81280000D03*
X85090000Y-78740000D03*
X85090000Y-76200000D03*
X85090000Y-73660000D03*
X85090000Y-71120000D03*
X85090000Y-68580000D03*
X85090000Y-66040000D03*
X85090000Y-63500000D03*
X85090000Y-60960000D03*
X85090000Y-58420000D03*
D22*
X106680000Y-58420000D03*
D23*
X106680000Y-60960000D03*
X106680000Y-63500000D03*
X106680000Y-66040000D03*
X106680000Y-68580000D03*
X106680000Y-71120000D03*
X106680000Y-73660000D03*
X106680000Y-76200000D03*
X106680000Y-78740000D03*
X106680000Y-81280000D03*
X106680000Y-83820000D03*
X106680000Y-86360000D03*
X106680000Y-88900000D03*
X106680000Y-91440000D03*
X106680000Y-93980000D03*
X106680000Y-96520000D03*
X106680000Y-99060000D03*
X106680000Y-101600000D03*
X106680000Y-104140000D03*
X81280000Y-58420000D03*
X81280000Y-60960000D03*
X81280000Y-63500000D03*
X81280000Y-66040000D03*
X81280000Y-68580000D03*
X81280000Y-71120000D03*
X81280000Y-73660000D03*
X81280000Y-76200000D03*
X81280000Y-78740000D03*
X81280000Y-81280000D03*
X81280000Y-83820000D03*
X81280000Y-86360000D03*
X81280000Y-88900000D03*
X81280000Y-91440000D03*
X81280000Y-93980000D03*
X81280000Y-96520000D03*
X81280000Y-99060000D03*
X81280000Y-101600000D03*
X81280000Y-104140000D03*
D24*
X90170000Y-88900000D03*
X88900000Y-114935000D03*
X90170000Y-101600000D03*
X88900000Y-78740000D03*
D25*
X99060000Y-63500000D03*
X128270000Y-69850000D03*
X128270000Y-71120000D03*
X122555000Y-80010000D03*
X122555000Y-81280000D03*
X111125000Y-104140000D03*
X89535000Y-106680000D03*
X88265000Y-99060000D03*
D26*
X127000000Y-118110000D02*
X127000000Y-115570000D01*
X127000000Y-109855000D02*
X127000000Y-115570000D01*
X129207500Y-93887000D02*
X124367000Y-93887000D01*
X100965000Y-125095000D02*
X104140000Y-121920000D01*
X124798000Y-105380000D02*
X124798400Y-105379600D01*
X124798000Y-105380000D02*
X124798000Y-107653000D01*
X124798000Y-107653000D02*
X127000000Y-109855000D01*
X78105000Y-125095000D02*
X100965000Y-125095000D01*
X124798400Y-105379600D02*
X124798400Y-103107000D01*
X124127500Y-91347000D02*
X124128000Y-91347000D01*
X104140000Y-121920000D02*
X114300000Y-121920000D01*
X116840000Y-119380000D02*
X125730000Y-119380000D01*
X124127500Y-101507000D02*
X124128000Y-101507000D01*
X76195000Y-129540000D02*
X76195000Y-127005000D01*
X124798000Y-103107000D02*
X124798000Y-105380000D01*
X124367000Y-93887000D02*
X124128000Y-93647500D01*
X125730000Y-119380000D02*
X127000000Y-118110000D01*
X76195000Y-127005000D02*
X78105000Y-125095000D01*
X114300000Y-121920000D02*
X116840000Y-119380000D01*
X124128000Y-93647500D02*
X124128000Y-101507000D01*
X124128000Y-91347000D02*
X124128000Y-93647500D01*
X92710000Y-121920000D02*
X92710000Y-118745000D01*
X85090000Y-76200000D02*
X86360000Y-76200000D01*
X86360000Y-76200000D02*
X88900000Y-78740000D01*
X102870000Y-101600000D02*
X90170000Y-101600000D01*
X92710000Y-118745000D02*
X88900000Y-114935000D01*
X102870000Y-88900000D02*
X90170000Y-88900000D01*
X106680000Y-129540000D02*
X106680000Y-126365000D01*
X106680000Y-126365000D02*
X108585000Y-124460000D01*
X108585000Y-124460000D02*
X123190000Y-124460000D01*
X127635000Y-121920000D02*
X129540000Y-120015000D01*
X129540000Y-120015000D02*
X129540000Y-115570000D01*
X123190000Y-124460000D02*
X125730000Y-121920000D01*
X125730000Y-121920000D02*
X127635000Y-121920000D01*
D27*
X102870000Y-58420000D02*
X101600000Y-58420000D01*
X97790000Y-121920000D02*
X101600000Y-118110000D01*
X101600000Y-58420000D02*
X97790000Y-62230000D01*
X123190000Y-118110000D02*
X124460000Y-116840000D01*
X58420000Y-95250000D02*
X71755000Y-95250000D01*
X124460000Y-116840000D02*
X124460000Y-115570000D01*
X101600000Y-118110000D02*
X123190000Y-118110000D01*
X97790000Y-62230000D02*
X97790000Y-73660000D01*
X71755000Y-92710000D02*
X71755000Y-91559900D01*
X71755000Y-91559900D02*
X72186300Y-91559900D01*
X72186300Y-91559900D02*
X79820200Y-83926000D01*
X99695000Y-117475000D02*
X120015000Y-117475000D01*
X95250000Y-121920000D02*
X99695000Y-117475000D01*
X101600000Y-60960000D02*
X99060000Y-63500000D01*
X58420000Y-92710000D02*
X71755000Y-92710000D01*
X102870000Y-60960000D02*
X101600000Y-60960000D01*
X120015000Y-117475000D02*
X121920000Y-115570000D01*
X79820200Y-80199800D02*
X81280000Y-78740000D01*
X79820200Y-83926000D02*
X79820200Y-80199800D01*
X102870000Y-66040000D02*
X104140000Y-66040000D01*
X110490000Y-69850000D02*
X128270000Y-69850000D01*
X105410000Y-67310000D02*
X105410000Y-72390000D01*
X104140000Y-66040000D02*
X105410000Y-67310000D01*
X105410000Y-72390000D02*
X106680000Y-73660000D01*
X106680000Y-73660000D02*
X110490000Y-69850000D01*
X106680000Y-76200000D02*
X111760000Y-71120000D01*
X104775000Y-74295000D02*
X106680000Y-76200000D01*
X111760000Y-71120000D02*
X128270000Y-71120000D01*
X104775000Y-70485000D02*
X104775000Y-74295000D01*
X102870000Y-68580000D02*
X104775000Y-70485000D01*
X107950000Y-80010000D02*
X122555000Y-80010000D01*
X105410000Y-81280000D02*
X106680000Y-81280000D01*
X106680000Y-81280000D02*
X107950000Y-80010000D01*
X102870000Y-78740000D02*
X105410000Y-81280000D01*
X106680000Y-83820000D02*
X109220000Y-81280000D01*
X109220000Y-81280000D02*
X122555000Y-81280000D01*
X105410000Y-83820000D02*
X106680000Y-83820000D01*
X102870000Y-81280000D02*
X105410000Y-83820000D01*
X97155000Y-83820000D02*
X102870000Y-83820000D01*
X88265000Y-74930000D02*
X97155000Y-83820000D01*
X82550000Y-66040000D02*
X83185000Y-66675000D01*
X83185000Y-66675000D02*
X83185000Y-68580000D01*
X84455000Y-69850000D02*
X85375600Y-69850000D01*
X88265000Y-72739400D02*
X88265000Y-74930000D01*
X83185000Y-68580000D02*
X84455000Y-69850000D01*
X85375600Y-69850000D02*
X88265000Y-72739400D01*
X81280000Y-66040000D02*
X82550000Y-66040000D01*
X87630000Y-73025000D02*
X86995000Y-72390000D01*
X99060000Y-86360000D02*
X87630000Y-74930000D01*
X83185000Y-70485000D02*
X81280000Y-68580000D01*
X102870000Y-86360000D02*
X99060000Y-86360000D01*
X87630000Y-74930000D02*
X87630000Y-73025000D01*
X86995000Y-72390000D02*
X83820000Y-72390000D01*
X83185000Y-71755000D02*
X83185000Y-70485000D01*
X83820000Y-72390000D02*
X83185000Y-71755000D01*
X92075000Y-109220000D02*
X106045000Y-109220000D01*
X106045000Y-109220000D02*
X111125000Y-104140000D01*
X82550000Y-109220000D02*
X85090000Y-106680000D01*
X60325000Y-114300000D02*
X65405000Y-109220000D01*
X58420000Y-114300000D02*
X60325000Y-114300000D01*
X65405000Y-109220000D02*
X82550000Y-109220000D01*
X89535000Y-106680000D02*
X92075000Y-109220000D01*
X60325000Y-111760000D02*
X58420000Y-111760000D01*
X63500000Y-108585000D02*
X60325000Y-111760000D01*
X83185000Y-98425000D02*
X83185000Y-102235000D01*
X85090000Y-104140000D02*
X80645000Y-108585000D01*
X81280000Y-96520000D02*
X83185000Y-98425000D01*
X83185000Y-102235000D02*
X85090000Y-104140000D01*
X80645000Y-108585000D02*
X63500000Y-108585000D01*
X88265000Y-99060000D02*
X89705000Y-97620000D01*
X58420000Y-119380000D02*
X62093500Y-119380000D01*
X107950000Y-97155000D02*
X107950000Y-87630000D01*
X88265000Y-111760000D02*
X88265000Y-99060000D01*
X62093500Y-119380000D02*
X65268500Y-116205000D01*
X83820000Y-116205000D02*
X88265000Y-111760000D01*
X65268500Y-116205000D02*
X83820000Y-116205000D01*
X89705000Y-97620000D02*
X107485000Y-97620000D01*
X107950000Y-87630000D02*
X106680000Y-86360000D01*
X107485000Y-97620000D02*
X107950000Y-97155000D01*
X106680000Y-93980000D02*
X105410000Y-95250000D01*
X86995000Y-98425000D02*
X85090000Y-96520000D01*
X105410000Y-95250000D02*
X90170000Y-95250000D01*
X59690000Y-116840000D02*
X66675000Y-109855000D01*
X58420000Y-116840000D02*
X59690000Y-116840000D01*
X85090000Y-109855000D02*
X86995000Y-107950000D01*
X86995000Y-107950000D02*
X86995000Y-98425000D01*
X66675000Y-109855000D02*
X85090000Y-109855000D01*
X90170000Y-95250000D02*
X86995000Y-98425000D01*
X81013900Y-69850000D02*
X81605900Y-69850000D01*
X82460100Y-82858000D02*
X84862000Y-85259900D01*
X81571900Y-90170000D02*
X84281800Y-87460100D01*
X80176300Y-69012400D02*
X81013900Y-69850000D01*
X81021200Y-90170000D02*
X81571900Y-90170000D01*
X82460100Y-70704200D02*
X82460100Y-82858000D01*
X85090000Y-86360000D02*
X85090000Y-87460100D01*
X84862000Y-85259900D02*
X85090000Y-85259900D01*
X80176300Y-64603700D02*
X80176300Y-69012400D01*
X66040000Y-105151200D02*
X81021200Y-90170000D01*
X66040000Y-106680000D02*
X66040000Y-105151200D01*
X81280000Y-63500000D02*
X80176300Y-64603700D01*
X84281800Y-87460100D02*
X85090000Y-87460100D01*
X85090000Y-86360000D02*
X85090000Y-85259900D01*
X81605900Y-69850000D02*
X82460100Y-70704200D01*
D26*
X54610000Y-121920000D02*
X57150000Y-124460000D01*
X85090000Y-68580000D02*
X86995000Y-68580000D01*
X101535000Y-56580000D02*
X104840000Y-56580000D01*
X54610000Y-107315000D02*
X56515000Y-109220000D01*
X56515000Y-87630000D02*
X54610000Y-89535000D01*
X54610000Y-69215000D02*
X56515000Y-67310000D01*
X54610000Y-89535000D02*
X54610000Y-107315000D01*
X54610000Y-111125000D02*
X54610000Y-121920000D01*
X104840000Y-56580000D02*
X106680000Y-58420000D01*
X56515000Y-87630000D02*
X54610000Y-85725000D01*
X86995000Y-68580000D02*
X90170000Y-71755000D01*
X56515000Y-109220000D02*
X58420000Y-109220000D01*
X56515000Y-109220000D02*
X54610000Y-111125000D01*
X56515000Y-67310000D02*
X58420000Y-67310000D01*
X89600000Y-68580000D02*
X89600000Y-68515000D01*
X71755000Y-87630000D02*
X58420000Y-87630000D01*
X58420000Y-87630000D02*
X56515000Y-87630000D01*
X68580000Y-124460000D02*
X71120000Y-121920000D01*
X57150000Y-124460000D02*
X68580000Y-124460000D01*
X90170000Y-71755000D02*
X90170000Y-73660000D01*
X54610000Y-85725000D02*
X54610000Y-69215000D01*
X71120000Y-121920000D02*
X90170000Y-121920000D01*
X89600000Y-68515000D02*
X101535000Y-56580000D01*
X86995000Y-68580000D02*
X89600000Y-68580000D01*
X129207500Y-83727000D02*
X124964000Y-83727000D01*
X129633000Y-74837000D02*
X124087500Y-74837000D01*
X127000000Y-64770000D02*
X130175000Y-67945000D01*
X116933000Y-86267000D02*
X124127500Y-86267000D01*
X124964000Y-83727000D02*
X124758000Y-83521600D01*
X100965000Y-55245000D02*
X107950000Y-55245000D01*
X124128000Y-84152500D02*
X124758000Y-83521600D01*
X106680000Y-104140000D02*
X108585000Y-104140000D01*
X108585000Y-104140000D02*
X110490000Y-102235000D01*
X124128000Y-86267000D02*
X124128000Y-84152500D01*
X124127500Y-86267000D02*
X124128000Y-86267000D01*
X110490000Y-92710000D02*
X116933000Y-86267000D01*
X117475000Y-64770000D02*
X127000000Y-64770000D01*
X133350000Y-85090000D02*
X131987000Y-83727000D01*
X107950000Y-55245000D02*
X117475000Y-64770000D01*
X130175000Y-74295000D02*
X129633000Y-74837000D01*
X131987000Y-83727000D02*
X129207500Y-83727000D01*
X95250000Y-60960000D02*
X100965000Y-55245000D01*
X133350000Y-86360000D02*
X133350000Y-85090000D01*
X110490000Y-102235000D02*
X110490000Y-92710000D01*
X130175000Y-67945000D02*
X130175000Y-74295000D01*
X124758400Y-76437000D02*
X124758000Y-76437000D01*
X85090000Y-60960000D02*
X95250000Y-60960000D01*
X124758000Y-83521600D02*
X124758000Y-76437000D01*
X134620000Y-88900000D02*
X135255000Y-88265000D01*
X133350000Y-88900000D02*
X134620000Y-88900000D01*
X134620000Y-80010000D02*
X133350000Y-80010000D01*
X135255000Y-80645000D02*
X134620000Y-80010000D01*
X135255000Y-88265000D02*
X135255000Y-80645000D01*
G04 #@! TA.AperFunction,Conductor*
G36*
X135832121Y-113050002D02*
G01*
X135878614Y-113103658D01*
X135890000Y-113156000D01*
X135890000Y-116787810D01*
X135869998Y-116855931D01*
X135853095Y-116876905D01*
X116876905Y-135853095D01*
X116814593Y-135887121D01*
X116787810Y-135890000D01*
X103631000Y-135890000D01*
X103562879Y-135869998D01*
X103516386Y-135816342D01*
X103505000Y-135764000D01*
X103505000Y-130884669D01*
X104872001Y-130884669D01*
X104872371Y-130891490D01*
X104877895Y-130942352D01*
X104881521Y-130957604D01*
X104926676Y-131078054D01*
X104935214Y-131093649D01*
X105011715Y-131195724D01*
X105024276Y-131208285D01*
X105126351Y-131284786D01*
X105141946Y-131293324D01*
X105262394Y-131338478D01*
X105277649Y-131342105D01*
X105328514Y-131347631D01*
X105335328Y-131348000D01*
X106407885Y-131348000D01*
X106423124Y-131343525D01*
X106424329Y-131342135D01*
X106426000Y-131334452D01*
X106426000Y-131329884D01*
X106934000Y-131329884D01*
X106938475Y-131345123D01*
X106939865Y-131346328D01*
X106947548Y-131347999D01*
X108024669Y-131347999D01*
X108031490Y-131347629D01*
X108082352Y-131342105D01*
X108097604Y-131338479D01*
X108218054Y-131293324D01*
X108233649Y-131284786D01*
X108335724Y-131208285D01*
X108348285Y-131195724D01*
X108424786Y-131093649D01*
X108433324Y-131078054D01*
X108478478Y-130957606D01*
X108482105Y-130942351D01*
X108487631Y-130891486D01*
X108488000Y-130884672D01*
X108488000Y-129812115D01*
X108483525Y-129796876D01*
X108482135Y-129795671D01*
X108474452Y-129794000D01*
X106952115Y-129794000D01*
X106936876Y-129798475D01*
X106935671Y-129799865D01*
X106934000Y-129807548D01*
X106934000Y-131329884D01*
X106426000Y-131329884D01*
X106426000Y-129812115D01*
X106421525Y-129796876D01*
X106420135Y-129795671D01*
X106412452Y-129794000D01*
X104890116Y-129794000D01*
X104874877Y-129798475D01*
X104873672Y-129799865D01*
X104872001Y-129807548D01*
X104872001Y-130884669D01*
X103505000Y-130884669D01*
X103505000Y-129492526D01*
X109947050Y-129492526D01*
X109959947Y-129761019D01*
X110012388Y-130024656D01*
X110103220Y-130277646D01*
X110230450Y-130514431D01*
X110233241Y-130518168D01*
X110233245Y-130518175D01*
X110314887Y-130627506D01*
X110391281Y-130729810D01*
X110394590Y-130733090D01*
X110394595Y-130733096D01*
X110554374Y-130891486D01*
X110582180Y-130919050D01*
X110585942Y-130921808D01*
X110585945Y-130921811D01*
X110698299Y-131004192D01*
X110798954Y-131077995D01*
X110803089Y-131080171D01*
X110803093Y-131080173D01*
X111020880Y-131194757D01*
X111036840Y-131203154D01*
X111290613Y-131291775D01*
X111295206Y-131292647D01*
X111550109Y-131341042D01*
X111550112Y-131341042D01*
X111554698Y-131341913D01*
X111682370Y-131346929D01*
X111818625Y-131352283D01*
X111818630Y-131352283D01*
X111823293Y-131352466D01*
X111927607Y-131341042D01*
X112085844Y-131323713D01*
X112085850Y-131323712D01*
X112090497Y-131323203D01*
X112203985Y-131293324D01*
X112345918Y-131255956D01*
X112345920Y-131255955D01*
X112350441Y-131254765D01*
X112458626Y-131208285D01*
X112593120Y-131150502D01*
X112593122Y-131150501D01*
X112597414Y-131148657D01*
X112754163Y-131051658D01*
X112822017Y-131009669D01*
X112822021Y-131009666D01*
X112825990Y-131007210D01*
X113031149Y-130833530D01*
X113208382Y-130631434D01*
X113259430Y-130552072D01*
X113351269Y-130409291D01*
X113353797Y-130405361D01*
X113464199Y-130160278D01*
X113501209Y-130029051D01*
X113535893Y-129906072D01*
X113535894Y-129906069D01*
X113537163Y-129901568D01*
X113555043Y-129761019D01*
X113570688Y-129638045D01*
X113570688Y-129638041D01*
X113571086Y-129634915D01*
X113573571Y-129540000D01*
X113570390Y-129497197D01*
X113553996Y-129276592D01*
X113553996Y-129276591D01*
X113553650Y-129271937D01*
X113551677Y-129263218D01*
X113495361Y-129014331D01*
X113495360Y-129014326D01*
X113494327Y-129009763D01*
X113396902Y-128759238D01*
X113263518Y-128525864D01*
X113097105Y-128314769D01*
X112901317Y-128130591D01*
X112715877Y-128001946D01*
X112684299Y-127980039D01*
X112684296Y-127980037D01*
X112680457Y-127977374D01*
X112676264Y-127975306D01*
X112443564Y-127860551D01*
X112443561Y-127860550D01*
X112439376Y-127858486D01*
X112391745Y-127843239D01*
X112337621Y-127825914D01*
X112183370Y-127776538D01*
X112178763Y-127775788D01*
X112178760Y-127775787D01*
X111922674Y-127734081D01*
X111922675Y-127734081D01*
X111918063Y-127733330D01*
X111787719Y-127731624D01*
X111653961Y-127729873D01*
X111653958Y-127729873D01*
X111649284Y-127729812D01*
X111382937Y-127766060D01*
X111124874Y-127841278D01*
X110880763Y-127953815D01*
X110876854Y-127956378D01*
X110659881Y-128098631D01*
X110659876Y-128098635D01*
X110655968Y-128101197D01*
X110455426Y-128280188D01*
X110283544Y-128486854D01*
X110144096Y-128716656D01*
X110040148Y-128964545D01*
X109973981Y-129225077D01*
X109947050Y-129492526D01*
X103505000Y-129492526D01*
X103505000Y-129267885D01*
X104872000Y-129267885D01*
X104876475Y-129283124D01*
X104877865Y-129284329D01*
X104885548Y-129286000D01*
X106407885Y-129286000D01*
X106423124Y-129281525D01*
X106424329Y-129280135D01*
X106426000Y-129272452D01*
X106426000Y-129267885D01*
X106934000Y-129267885D01*
X106938475Y-129283124D01*
X106939865Y-129284329D01*
X106947548Y-129286000D01*
X108469884Y-129286000D01*
X108485123Y-129281525D01*
X108486328Y-129280135D01*
X108487999Y-129272452D01*
X108487999Y-128195331D01*
X108487629Y-128188510D01*
X108482105Y-128137648D01*
X108478479Y-128122396D01*
X108433324Y-128001946D01*
X108424786Y-127986351D01*
X108348285Y-127884276D01*
X108335724Y-127871715D01*
X108233649Y-127795214D01*
X108218054Y-127786676D01*
X108097606Y-127741522D01*
X108082351Y-127737895D01*
X108031486Y-127732369D01*
X108024672Y-127732000D01*
X106952115Y-127732000D01*
X106936876Y-127736475D01*
X106935671Y-127737865D01*
X106934000Y-127745548D01*
X106934000Y-129267885D01*
X106426000Y-129267885D01*
X106426000Y-127750116D01*
X106421525Y-127734877D01*
X106420135Y-127733672D01*
X106412452Y-127732001D01*
X105335331Y-127732001D01*
X105328510Y-127732371D01*
X105277648Y-127737895D01*
X105262396Y-127741521D01*
X105141946Y-127786676D01*
X105126351Y-127795214D01*
X105024276Y-127871715D01*
X105011715Y-127884276D01*
X104935214Y-127986351D01*
X104926676Y-128001946D01*
X104881522Y-128122394D01*
X104877895Y-128137649D01*
X104872369Y-128188514D01*
X104872000Y-128195328D01*
X104872000Y-129267885D01*
X103505000Y-129267885D01*
X103505000Y-127687190D01*
X103525002Y-127619069D01*
X103541905Y-127598095D01*
X107913095Y-123226905D01*
X107975407Y-123192879D01*
X108002190Y-123190000D01*
X121285000Y-123190000D01*
X123788095Y-120686905D01*
X123850407Y-120652879D01*
X123877190Y-120650000D01*
X127000000Y-120650000D01*
X128905000Y-118745000D01*
X128905000Y-116964226D01*
X128925002Y-116896105D01*
X128978658Y-116849612D01*
X129048932Y-116839508D01*
X129075949Y-116846516D01*
X129155001Y-116876703D01*
X129164899Y-116879579D01*
X129268250Y-116900606D01*
X129282299Y-116899410D01*
X129286000Y-116889065D01*
X129286000Y-116888517D01*
X129794000Y-116888517D01*
X129798064Y-116902359D01*
X129811478Y-116904393D01*
X129818184Y-116903534D01*
X129828262Y-116901392D01*
X130032255Y-116840191D01*
X130041842Y-116836433D01*
X130233095Y-116742739D01*
X130241945Y-116737464D01*
X130415328Y-116613792D01*
X130423200Y-116607139D01*
X130574052Y-116456812D01*
X130580730Y-116448965D01*
X130705003Y-116276020D01*
X130710313Y-116267183D01*
X130804670Y-116076267D01*
X130808469Y-116066672D01*
X130870377Y-115862910D01*
X130872555Y-115852837D01*
X130873986Y-115841962D01*
X130871775Y-115827778D01*
X130858617Y-115824000D01*
X129812115Y-115824000D01*
X129796876Y-115828475D01*
X129795671Y-115829865D01*
X129794000Y-115837548D01*
X129794000Y-116888517D01*
X129286000Y-116888517D01*
X129286000Y-115297885D01*
X129794000Y-115297885D01*
X129798475Y-115313124D01*
X129799865Y-115314329D01*
X129807548Y-115316000D01*
X130858344Y-115316000D01*
X130871875Y-115312027D01*
X130873180Y-115302947D01*
X130831214Y-115135875D01*
X130827894Y-115126124D01*
X130742972Y-114930814D01*
X130738105Y-114921739D01*
X130622426Y-114742926D01*
X130616136Y-114734757D01*
X130472806Y-114577240D01*
X130465273Y-114570215D01*
X130298139Y-114438222D01*
X130289552Y-114432517D01*
X130103117Y-114329599D01*
X130093705Y-114325369D01*
X129892959Y-114254280D01*
X129882988Y-114251646D01*
X129811837Y-114238972D01*
X129798540Y-114240432D01*
X129794000Y-114254989D01*
X129794000Y-115297885D01*
X129286000Y-115297885D01*
X129286000Y-114253102D01*
X129282082Y-114239758D01*
X129267806Y-114237771D01*
X129229324Y-114243660D01*
X129219288Y-114246051D01*
X129070145Y-114294798D01*
X128999181Y-114296949D01*
X128938319Y-114260393D01*
X128906883Y-114196735D01*
X128905000Y-114175033D01*
X128905000Y-113156000D01*
X128925002Y-113087879D01*
X128978658Y-113041386D01*
X129031000Y-113030000D01*
X135764000Y-113030000D01*
X135832121Y-113050002D01*
G37*
G04 #@! TD.AperFunction*
G04 #@! TA.AperFunction,Conductor*
G36*
X127254000Y-116888517D02*
G01*
X127258064Y-116902359D01*
X127271478Y-116904393D01*
X127278184Y-116903534D01*
X127288262Y-116901392D01*
X127492255Y-116840191D01*
X127501842Y-116836433D01*
X127693095Y-116742739D01*
X127701945Y-116737464D01*
X127875328Y-116613792D01*
X127883200Y-116607139D01*
X128034052Y-116456812D01*
X128040727Y-116448967D01*
X128041677Y-116447646D01*
X128042197Y-116447241D01*
X128044081Y-116445027D01*
X128044538Y-116445416D01*
X128097671Y-116403998D01*
X128168374Y-116397551D01*
X128231339Y-116430353D01*
X128266574Y-116491989D01*
X128270000Y-116521171D01*
X128270000Y-118057810D01*
X128249998Y-118125931D01*
X128233095Y-118146905D01*
X126401905Y-119978095D01*
X126339593Y-120012121D01*
X126312810Y-120015000D01*
X123190000Y-120015000D01*
X120686905Y-122518095D01*
X120624593Y-122552121D01*
X120597810Y-122555000D01*
X107315000Y-122555000D01*
X101600000Y-128270000D01*
X101600000Y-135764000D01*
X101579998Y-135832121D01*
X101526342Y-135878614D01*
X101474000Y-135890000D01*
X73151000Y-135890000D01*
X73082879Y-135869998D01*
X73036386Y-135816342D01*
X73025000Y-135764000D01*
X73025000Y-130884669D01*
X74387001Y-130884669D01*
X74387371Y-130891490D01*
X74392895Y-130942352D01*
X74396521Y-130957604D01*
X74441676Y-131078054D01*
X74450214Y-131093649D01*
X74526715Y-131195724D01*
X74539276Y-131208285D01*
X74641351Y-131284786D01*
X74656946Y-131293324D01*
X74777394Y-131338478D01*
X74792649Y-131342105D01*
X74843514Y-131347631D01*
X74850328Y-131348000D01*
X75922885Y-131348000D01*
X75938124Y-131343525D01*
X75939329Y-131342135D01*
X75941000Y-131334452D01*
X75941000Y-131329884D01*
X76449000Y-131329884D01*
X76453475Y-131345123D01*
X76454865Y-131346328D01*
X76462548Y-131347999D01*
X77539669Y-131347999D01*
X77546490Y-131347629D01*
X77597352Y-131342105D01*
X77612604Y-131338479D01*
X77733054Y-131293324D01*
X77748649Y-131284786D01*
X77850724Y-131208285D01*
X77863285Y-131195724D01*
X77939786Y-131093649D01*
X77948324Y-131078054D01*
X77993478Y-130957606D01*
X77997105Y-130942351D01*
X78002631Y-130891486D01*
X78003000Y-130884672D01*
X78003000Y-129812115D01*
X77998525Y-129796876D01*
X77997135Y-129795671D01*
X77989452Y-129794000D01*
X76467115Y-129794000D01*
X76451876Y-129798475D01*
X76450671Y-129799865D01*
X76449000Y-129807548D01*
X76449000Y-131329884D01*
X75941000Y-131329884D01*
X75941000Y-129812115D01*
X75936525Y-129796876D01*
X75935135Y-129795671D01*
X75927452Y-129794000D01*
X74405116Y-129794000D01*
X74389877Y-129798475D01*
X74388672Y-129799865D01*
X74387001Y-129807548D01*
X74387001Y-130884669D01*
X73025000Y-130884669D01*
X73025000Y-129492526D01*
X79462050Y-129492526D01*
X79474947Y-129761019D01*
X79527388Y-130024656D01*
X79618220Y-130277646D01*
X79745450Y-130514431D01*
X79748241Y-130518168D01*
X79748245Y-130518175D01*
X79762888Y-130537784D01*
X79906281Y-130729810D01*
X79909590Y-130733090D01*
X79909595Y-130733096D01*
X80065993Y-130888134D01*
X80097180Y-130919050D01*
X80100942Y-130921808D01*
X80100945Y-130921811D01*
X80213299Y-131004192D01*
X80313954Y-131077995D01*
X80318089Y-131080171D01*
X80318093Y-131080173D01*
X80537718Y-131195724D01*
X80551840Y-131203154D01*
X80805613Y-131291775D01*
X80810206Y-131292647D01*
X81065109Y-131341042D01*
X81065112Y-131341042D01*
X81069698Y-131341913D01*
X81197370Y-131346929D01*
X81333625Y-131352283D01*
X81333630Y-131352283D01*
X81338293Y-131352466D01*
X81442607Y-131341042D01*
X81600844Y-131323713D01*
X81600850Y-131323712D01*
X81605497Y-131323203D01*
X81718985Y-131293324D01*
X81860918Y-131255956D01*
X81860920Y-131255955D01*
X81865441Y-131254765D01*
X81973626Y-131208285D01*
X82108120Y-131150502D01*
X82108122Y-131150501D01*
X82112414Y-131148657D01*
X82231071Y-131075230D01*
X82337017Y-131009669D01*
X82337021Y-131009666D01*
X82340990Y-131007210D01*
X82546149Y-130833530D01*
X82723382Y-130631434D01*
X82868797Y-130405361D01*
X82979199Y-130160278D01*
X83016209Y-130029051D01*
X83050893Y-129906072D01*
X83050894Y-129906069D01*
X83052163Y-129901568D01*
X83070043Y-129761019D01*
X83085688Y-129638045D01*
X83085688Y-129638041D01*
X83086086Y-129634915D01*
X83088571Y-129540000D01*
X83085390Y-129497197D01*
X83068996Y-129276592D01*
X83068996Y-129276591D01*
X83068650Y-129271937D01*
X83067619Y-129267379D01*
X83010361Y-129014331D01*
X83010360Y-129014326D01*
X83009327Y-129009763D01*
X82911902Y-128759238D01*
X82778518Y-128525864D01*
X82612105Y-128314769D01*
X82416317Y-128130591D01*
X82218407Y-127993295D01*
X82199299Y-127980039D01*
X82199296Y-127980037D01*
X82195457Y-127977374D01*
X82191264Y-127975306D01*
X81958564Y-127860551D01*
X81958561Y-127860550D01*
X81954376Y-127858486D01*
X81906745Y-127843239D01*
X81852621Y-127825914D01*
X81698370Y-127776538D01*
X81693763Y-127775788D01*
X81693760Y-127775787D01*
X81483358Y-127741521D01*
X81433063Y-127733330D01*
X81302719Y-127731624D01*
X81168961Y-127729873D01*
X81168958Y-127729873D01*
X81164284Y-127729812D01*
X80897937Y-127766060D01*
X80639874Y-127841278D01*
X80395763Y-127953815D01*
X80391854Y-127956378D01*
X80174881Y-128098631D01*
X80174876Y-128098635D01*
X80170968Y-128101197D01*
X80167476Y-128104314D01*
X79981841Y-128270000D01*
X79970426Y-128280188D01*
X79798544Y-128486854D01*
X79659096Y-128716656D01*
X79555148Y-128964545D01*
X79488981Y-129225077D01*
X79462050Y-129492526D01*
X73025000Y-129492526D01*
X73025000Y-129267885D01*
X74387000Y-129267885D01*
X74391475Y-129283124D01*
X74392865Y-129284329D01*
X74400548Y-129286000D01*
X75922885Y-129286000D01*
X75938124Y-129281525D01*
X75939329Y-129280135D01*
X75941000Y-129272452D01*
X75941000Y-129267885D01*
X76449000Y-129267885D01*
X76453475Y-129283124D01*
X76454865Y-129284329D01*
X76462548Y-129286000D01*
X77984884Y-129286000D01*
X78000123Y-129281525D01*
X78001328Y-129280135D01*
X78002999Y-129272452D01*
X78002999Y-128195331D01*
X78002629Y-128188510D01*
X77997105Y-128137648D01*
X77993479Y-128122396D01*
X77948324Y-128001946D01*
X77939786Y-127986351D01*
X77863285Y-127884276D01*
X77850724Y-127871715D01*
X77748649Y-127795214D01*
X77733054Y-127786676D01*
X77612606Y-127741522D01*
X77597351Y-127737895D01*
X77546486Y-127732369D01*
X77539672Y-127732000D01*
X76467115Y-127732000D01*
X76451876Y-127736475D01*
X76450671Y-127737865D01*
X76449000Y-127745548D01*
X76449000Y-129267885D01*
X75941000Y-129267885D01*
X75941000Y-127750116D01*
X75936525Y-127734877D01*
X75935135Y-127733672D01*
X75927452Y-127732001D01*
X74850331Y-127732001D01*
X74843510Y-127732371D01*
X74792648Y-127737895D01*
X74777396Y-127741521D01*
X74656946Y-127786676D01*
X74641351Y-127795214D01*
X74539276Y-127871715D01*
X74526715Y-127884276D01*
X74450214Y-127986351D01*
X74441676Y-128001946D01*
X74396522Y-128122394D01*
X74392895Y-128137649D01*
X74387369Y-128188514D01*
X74387000Y-128195328D01*
X74387000Y-129267885D01*
X73025000Y-129267885D01*
X73025000Y-124586000D01*
X73045002Y-124517879D01*
X73098658Y-124471386D01*
X73151000Y-124460000D01*
X100330000Y-124460000D01*
X100330000Y-120702190D01*
X100350002Y-120634069D01*
X100366905Y-120613095D01*
X102198095Y-118781905D01*
X102260407Y-118747879D01*
X102287190Y-118745000D01*
X125095000Y-118745000D01*
X125730000Y-118110000D01*
X125730000Y-116515985D01*
X125750002Y-116447864D01*
X125803658Y-116401371D01*
X125873932Y-116391267D01*
X125938512Y-116420761D01*
X125951237Y-116433488D01*
X126043213Y-116539667D01*
X126050580Y-116546883D01*
X126214434Y-116682916D01*
X126222881Y-116688831D01*
X126406756Y-116796279D01*
X126416042Y-116800729D01*
X126615001Y-116876703D01*
X126624899Y-116879579D01*
X126728250Y-116900606D01*
X126742299Y-116899410D01*
X126746000Y-116889065D01*
X126746000Y-115570000D01*
X127254000Y-115570000D01*
X127254000Y-116888517D01*
G37*
G04 #@! TD.AperFunction*
M02*
